<?xml version="1.0" encoding="UTF-8" standalone="no"?>
<!-- Created with Inkscape (http://www.inkscape.org/) -->

<svg
   width="110mm"
   height="130mm"
   viewBox="0 0 110 130"
   version="1.1"
   id="svg1"
   sodipodi:docname="affordable-shipping.svg"
   inkscape:version="1.4 (e7c3feb100, 2024-10-09)"
   xmlns:inkscape="http://www.inkscape.org/namespaces/inkscape"
   xmlns:sodipodi="http://sodipodi.sourceforge.net/DTD/sodipodi-0.dtd"
   xmlns="http://www.w3.org/2000/svg"
   xmlns:svg="http://www.w3.org/2000/svg">
  <sodipodi:namedview
     id="namedview1"
     pagecolor="#ffffff"
     bordercolor="#000000"
     borderopacity="0.25"
     inkscape:showpageshadow="2"
     inkscape:pageopacity="0.0"
     inkscape:pagecheckerboard="0"
     inkscape:deskcolor="#d1d1d1"
     inkscape:document-units="mm"
     inkscape:zoom="0.81792486"
     inkscape:cx="-1.2226062"
     inkscape:cy="228.62736"
     inkscape:window-width="1346"
     inkscape:window-height="755"
     inkscape:window-x="0"
     inkscape:window-y="0"
     inkscape:window-maximized="1"
     inkscape:current-layer="layer1" />
  <defs
     id="defs1" />
  <g
     inkscape:label="Layer 1"
     inkscape:groupmode="layer"
     id="layer1">
    <path
       id="path10"
       style="baseline-shift:baseline;display:inline;overflow:visible;vector-effect:none;enable-background:accumulate;stop-color:#000000;stop-opacity:1"
       d="m 23.441296,1.5 c -8.703439,0 -18.3534013,8.3211355 -18.3534013,18.571477 0,10.250347 8.2154503,18.571476 18.3534013,18.571476 10.137947,0 18.353402,-8.313143 18.353402,-18.571476 C 41.794698,9.8131534 32.144735,1.4999999 23.441296,1.5 Z m -0.0026,5.6973266 c 0.873098,0 1.580782,0.7159196 1.580782,1.5993859 v 0.9741 c 2.766568,0.5668035 5.164542,2.6926105 5.164542,5.6037935 0,0.883467 -0.832654,1.591634 -1.580265,1.591634 -0.74761,0 -1.580782,-0.708167 -1.580782,-1.591634 0,-2.261887 -3.994214,-3.531316 -6.261117,-1.705839 -0.565411,0.46036 -0.910022,1.064527 -0.910022,1.705839 0,1.048451 0.336693,1.554028 1.207162,1.923913 2.727121,1.154899 9.780281,0.346069 9.780281,6.940145 0,3.235826 -2.727089,5.58306 -5.822383,6.15518 v 0.949813 l 0.0052,-0.0026 c 0,0.88346 -0.707683,1.599386 -1.580782,1.599386 -0.873099,0 -1.580265,-0.715926 -1.580265,-1.599386 v -0.95033 c -3.092665,-0.57212 -5.822384,-2.918837 -5.822384,-6.154663 0,-0.883476 0.707166,-1.591634 1.580266,-1.591634 0.873098,0 1.572514,0.708158 1.572514,1.591634 0,2.746197 4.717881,4.230777 7.387146,2.075326 0.686382,-0.550839 1.110009,-1.282334 1.110009,-2.075326 0,-3.32631 -5.098998,-2.844936 -7.841898,-3.997172 -2.00655,-0.851537 -3.153296,-2.482667 -3.153296,-4.864302 0,-2.911183 2.401121,-5.039651 5.165059,-5.6037936 v -0.9741 c 0,-0.8834663 0.707166,-1.5993859 1.580266,-1.5993859 z m 70.631881,9.8515954 -16.991728,0.03514 v 43.42629 H 63.095723 l 22.474081,21.992973 22.525756,-22.023979 -14.024983,0.0036 z m -52.210767,18.217493 -11.957926,6.985103 0.001,5.17e-4 -0.02119,0.0124 28.214815,16.477548 h 0.02791 16.751949 0.310058 V 54.772201 L 74.8764,54.590817 v -0.03256 z m -15.118973,8.826851 -10.130131,5.920569 40.35981,23.579956 V 97.164962 L 67.100647,91.244393 V 67.672706 Z M 13.457926,51.852999 3.0725138,57.925497 41.852059,80.576311 52.236955,74.511565 Z M 1.5,60.679334 v 45.320236 l 38.779545,22.65082 V 83.330148 Z m 68.723971,9.931177 0.0062,22.497335 -16.420703,9.587024 v -25.4212 l -10.377145,6.064746 v 0.0041 l -0.02274,0.01344 -10e-4,45.309384 38.777995,-22.64978 v -10e-4 l 0.02532,-0.015 V 82.342094 l -0.02532,-0.0248 -3.827157,-3.744991 -3.482991,-3.408578 -4.622457,-4.523755 z" />
  </g>
</svg>
