<svg xmlns="http://www.w3.org/2000/svg" version="1.1" xmlns:xlink="http://www.w3.org/1999/xlink" width="512" height="512" x="0" y="0" viewBox="0 0 1000 1000" style="enable-background:new 0 0 512 512" xml:space="preserve" class=""><g><path d="m420.38 632.37-38.6 32s-.07 0-.08.07l-.22.19-31.21 25.89-39.19-127.2 31-19zM558.38 563.32l-39.19 127.21L488 664.64l-.23-.19a.45.45 0 0 0-.07-.07l-38.6-32 78.29-88.07zM469.79 675.53l-17.72 58.12h-34.69l-17.71-58.12 35.06-29.08zM488.33 899.99H381.12l36.65-146.34h33.91z" fill="#000000" opacity="1" data-original="#000000"></path><path d="M399.6 743.9 360.5 900H220.83V756.87a10 10 0 0 0-20 0V900h-78.09c-3.49-.37-22.16-3.24-22.74-21.83l26.08-240.58a4.14 4.14 0 0 0 .08-1.32c.15-1.24 1.42-6.28 11.05-9.84l155.53-54.69 42.82 139a10 10 0 0 0 15.94 4.76l31.5-26.12zM756.18 475.81c-79.3 0-143.81 64.51-143.81 143.81s64.51 143.82 143.81 143.82q4.41 0 8.76-.27h.46c75-4.77 134.6-67.33 134.6-143.53 0-79.32-64.52-143.83-143.82-143.83zm0 256.35a112.54 112.54 0 1 1 112.55-112.54 112.67 112.67 0 0 1-112.55 112.54z" fill="#000000" opacity="1" data-original="#000000"></path><path d="M707.29 900H509l-39.15-156.1 16.63-54.52L518 715.49a10 10 0 0 0 15.94-4.76l42.82-139 20.75 7.3a163.76 163.76 0 0 0 39.46 152.79l-38 141.95a10 10 0 0 0 12.78 12.09l65-21.32z" fill="#000000" opacity="1" data-original="#000000"></path><path d="m752.71 783.4-6.17 23v.23l-22.09 82.49-36.92-42.74a10 10 0 0 0-10.68-3L623 861.1l30.5-113.93a163 163 0 0 0 99.21 36.23zM889.39 861.1l-53.79-17.65a10 10 0 0 0-10.68 3L788 889.16l-21.47-80.09 7.12-26.55a163 163 0 0 0 85.2-35.33zM771.18 568.37v102.5a15 15 0 0 1-30 0v-72.63A78.86 78.86 0 0 1 726.1 607a15 15 0 0 1-11.64-27.65c3.83-1.66 15.49-8.23 18.83-16.55a15 15 0 0 1 13.92-9.41h9a15 15 0 0 1 14.97 14.98zM434.75 525c-29.26 0-57-9.72-80.82-27.86v30.35l80.8 90.88 80.79-90.87v-30.28C491.74 515.33 464 525 434.75 525z" fill="#000000" opacity="1" data-original="#000000"></path><path d="M434.75 505c-34.94 0-67.61-16.51-92-46.5-23.43-28.81-36.47-66.81-36.8-107.17a14.17 14.17 0 0 1-.09-1.6v-97.14a13.5 13.5 0 0 1 27 0v95.66c.05.51.08 1 .08 1.54 0 70.71 45.67 128.21 101.81 128.21 56 0 101.54-57.16 101.83-127.56v-94.3a13.5 13.5 0 0 1 27 0V349.79c0 40.94-13.08 79.56-36.83 108.74-24.39 29.99-57.07 46.47-92 46.47z" fill="#000000" opacity="1" data-original="#000000"></path><path d="M539 336.14V318a62.49 62.49 0 0 0-14.55-40.48 53.67 53.67 0 0 0-3.74-4 39.78 39.78 0 0 0-44.21-7.75c-19.64 8.77-37.35 12.53-52.82 13.28h-.07c-15.47-.75-33.18-4.51-52.82-13.28a39.78 39.78 0 0 0-44.21 7.75 68.8 68.8 0 0 0-3.74 4 62.49 62.49 0 0 0-14.6 40.48v14.62c-35.08-182.5 86.33-200.31 86.33-200.31 55.16-11.7 80.08 2 91 14a81.76 81.76 0 0 0 28.64 20.54c97.44 40.62 33.29 154.92 24.79 169.29z" fill="#000000" opacity="1" data-original="#000000"></path><path d="M550.07 305.14c-.58 1-.9 1.49-.9 1.49" fill="#000000" opacity="1" data-original="#000000"></path></g></svg>