<svg xmlns="http://www.w3.org/2000/svg" version="1.1" xmlns:xlink="http://www.w3.org/1999/xlink" width="512" height="512" x="0" y="0" viewBox="0 0 512 512" style="enable-background:new 0 0 512 512" xml:space="preserve" class=""><g><path d="m389.606 457.765 28.181-16.27v31.493c0 15.427-12.584 28.012-28.012 28.012H75.084c-15.429 0-28.012-12.583-28.012-28.012V86.839c0-15.428 12.583-28.012 28.012-28.012H133.7v28.18H75.252v385.812h314.354zm0-231.691 28.181 16.27V86.839c0-15.428-12.584-28.012-28.012-28.012h-58.616v28.181h58.448v139.067zM232.429 94.288H147.7V58.827c0-4.984 1.998-9.275 5.815-12.481 3.816-3.207 8.387-4.437 13.297-3.578l32.667 5.71v-4.526c0-18.198 14.752-32.951 32.951-32.951s32.951 14.753 32.951 32.951v4.526l32.667-5.71c4.91-.858 9.481.372 13.297 3.578s5.815 7.497 5.815 12.481v35.461h-84.73zm0-41.494c5.618 0 10.2-4.582 10.2-10.2s-4.582-10.2-10.2-10.2-10.2 4.582-10.2 10.2 4.583 10.2 10.2 10.2zM221.18 159.486h123.45a7 7 0 1 0 0-14H221.18a7 7 0 1 0 0 14zm0 41.1h123.45a7 7 0 1 0 0-14H221.18a7 7 0 1 0 0 14zm146.404 133.278 90.361-52.17-23.986-13.848-90.367 52.166zm.012-104.331-90.36 52.169 23.902 13.8 90.356-52.172zm-44.965 94.474-14.46-8.349v22.628l14.46 8.348v-22.628zm51.966 21.935v104.323l90.33-52.153V293.789l-90.33 52.152zm-14-.015-23.988-13.85v26.68c0 2.502-1.302 4.81-3.47 6.059-1.109.627-2.314.94-3.519.94s-2.41-.313-3.47-.94l-28.487-16.427c-2.169-1.253-3.47-3.562-3.47-6.064v-34.738l-23.926-13.813v104.338l90.33 52.153V345.926zm-45.456-42.34 14.47 8.354 90.353-52.174-14.455-8.345-90.367 52.165zm-123.213 7.077c0 4.124-3.374 7.498-7.498 7.498h-61.501c-4.125 0-7.499-3.374-7.499-7.498v-61.502c0-4.124 3.374-7.499 7.499-7.499h61.501c4.124 0 7.498 3.374 7.498 7.499zm-15.858-48.722a7 7 0 0 0-9.898 0l-19.662 19.662-4.258-7.375a6.97 6.97 0 1 0-12.085 6.946l8.822 15.28c2.269 3.948 7.797 4.669 10.992 1.476l26.09-26.091a7 7 0 0 0 0-9.898zm15.858-58.155c0 4.124-3.374 7.498-7.498 7.498h-61.501c-4.125 0-7.499-3.374-7.499-7.498v-61.502c0-4.125 3.374-7.499 7.499-7.499h61.501c4.124 0 7.498 3.374 7.498 7.499zm-15.858-48.722a7 7 0 0 0-9.898 0l-19.662 19.662-4.258-7.375a6.97 6.97 0 1 0-12.085 6.946l8.822 15.28c2.269 3.948 7.797 4.669 10.992 1.476l26.09-26.091a7 7 0 0 0 0-9.898zm15.858 200.974v61.502c0 4.124-3.374 7.498-7.498 7.498h-61.501c-4.125 0-7.499-3.374-7.499-7.498v-61.502c0-4.125 3.374-7.499 7.499-7.499h61.501c4.124 0 7.498 3.374 7.498 7.499zm-15.858 12.78a7 7 0 0 0-9.898 0l-19.662 19.662-4.258-7.375a6.97 6.97 0 1 0-12.085 6.946l8.822 15.28c2.269 3.948 7.797 4.669 10.992 1.476l26.09-26.091a7 7 0 0 0 0-9.898z" fill="#000000" opacity="1" data-original="#000000"></path></g></svg>