<svg xmlns="http://www.w3.org/2000/svg" version="1.1" xmlns:xlink="http://www.w3.org/1999/xlink" width="512" height="512" x="0" y="0" viewBox="0 0 682.667 682.667" style="enable-background:new 0 0 512 512" xml:space="preserve" class=""><g><defs><clipPath id="b" clipPathUnits="userSpaceOnUse"><path d="M0 512h512V0H0Z" fill="#000000" opacity="1" data-original="#000000" class=""></path></clipPath></defs><mask id="a"><rect width="100%" height="100%" fill="#ffffff" opacity="1" data-original="#ffffff"></rect><path d="M0 0c0-123.712-100.288-224-224-224S-448-123.712-448 0s100.288 224 224 224S0 123.712 0 0" style="fill-opacity:1;fill-rule:nonzero;stroke:none" transform="matrix(1.33333 0 0 -1.33333 597.333 298.667)" fill="#ffffff" data-original="#ffffff"></path><path d="M0 0c0-83.188-67.437-150.625-150.625-150.625S-301.25-83.188-301.25 0s67.437 150.625 150.625 150.625S0 83.188 0 0Z" style="stroke-width:30;stroke-linecap:butt;stroke-linejoin:miter;stroke-miterlimit:10;stroke-dasharray:none;stroke-opacity:1" transform="matrix(1.33333 0 0 -1.33333 499.5 298.667)" fill="none" stroke="#000000" stroke-width="30" stroke-linecap="butt" stroke-linejoin="miter" stroke-miterlimit="10" stroke-dasharray="none" stroke-opacity="" data-original="#000000"></path><path d="M0 0c0 16.646-13.494 30.14-30.139 30.14h-16.166c-16.635 0-30.12-13.486-30.12-30.121 0-16.635 13.485-30.121 30.12-30.121h16.545c16.635 0 30.121-13.485 30.121-30.12S-13.125-90.343-29.76-90.343h-16.839c-16.34 0-29.587 13.247-29.587 29.588" style="stroke-width:30;stroke-linecap:butt;stroke-linejoin:miter;stroke-miterlimit:10;stroke-dasharray:none;stroke-opacity:1" transform="matrix(1.33333 0 0 -1.33333 349.376 258.531)" fill="none" stroke="#000000" stroke-width="30" stroke-linecap="butt" stroke-linejoin="miter" stroke-miterlimit="10" stroke-dasharray="none" stroke-opacity="" data-original="#000000"></path><path d="M0 0v-34.654" style="stroke-width:30;stroke-linecap:butt;stroke-linejoin:miter;stroke-miterlimit:10;stroke-dasharray:none;stroke-opacity:1" transform="matrix(1.33333 0 0 -1.33333 298.667 172.14)" fill="none" stroke="#000000" stroke-width="30" stroke-linecap="butt" stroke-linejoin="miter" stroke-miterlimit="10" stroke-dasharray="none" stroke-opacity="" data-original="#000000"></path><path d="M0 0v-34.654" style="stroke-width:30;stroke-linecap:butt;stroke-linejoin:miter;stroke-miterlimit:10;stroke-dasharray:none;stroke-opacity:1" transform="matrix(1.33333 0 0 -1.33333 298.667 378.988)" fill="none" stroke="#000000" stroke-width="30" stroke-linecap="butt" stroke-linejoin="miter" stroke-miterlimit="10" stroke-dasharray="none" stroke-opacity="" data-original="#000000"></path><path d="M0 0c-70.028 0-127 56.972-127 127 0 70.028 56.972 127 127 127 70.028 0 127-56.972 127-127C127 56.972 70.028 0 0 0" style="fill-opacity:1;fill-rule:nonzero;stroke:none" transform="matrix(1.33333 0 0 -1.33333 533.333 702.667)" fill="#ffffff" data-original="#ffffff"></path><path d="M0 0c-37.93 0-73.589-14.771-100.409-41.591C-127.229-68.411-142-104.07-142-142c0-37.93 14.771-73.589 41.591-100.409C-73.589-269.229-37.93-284 0-284c37.93 0 73.589 14.771 100.409 41.591C127.229-215.589 142-179.93 142-142c0 37.93-14.771 73.589-41.591 100.409C73.589-14.771 37.93 0 0 0m0-30c61.856 0 112-50.145 112-112S61.856-254 0-254s-112 50.145-112 112S-61.856-30 0-30" style="fill-opacity:1;fill-rule:nonzero;stroke:none" transform="matrix(1.33333 0 0 -1.33333 533.333 344)" fill="#000000" data-original="#000000" class=""></path><path d="M0 0v30" style="stroke-width:30;stroke-linecap:butt;stroke-linejoin:miter;stroke-miterlimit:10;stroke-dasharray:none;stroke-opacity:1" transform="matrix(1.33333 0 0 -1.33333 533.333 625.583)" fill="none" stroke="#000000" stroke-width="30" stroke-linecap="butt" stroke-linejoin="miter" stroke-miterlimit="10" stroke-dasharray="none" stroke-opacity="" data-original="#000000"></path><path d="M0 0v89.24" style="stroke-width:30;stroke-linecap:butt;stroke-linejoin:miter;stroke-miterlimit:10;stroke-dasharray:none;stroke-opacity:1" transform="matrix(1.33333 0 0 -1.33333 533.333 560.07)" fill="none" stroke="#000000" stroke-width="30" stroke-linecap="butt" stroke-linejoin="miter" stroke-miterlimit="10" stroke-dasharray="none" stroke-opacity="" data-original="#000000"></path></mask><g mask="url(#a)"><g clip-path="url(#b)" transform="matrix(1.33333 0 0 -1.33333 0 682.667)"><path d="M0 0c0-123.712-100.288-224-224-224S-448-123.712-448 0s100.288 224 224 224S0 123.712 0 0" style="fill-opacity:1;fill-rule:nonzero;stroke:none" transform="translate(448 288)" fill="#000000" data-original="#000000" class=""></path><path d="M0 0c0-83.188-67.437-150.625-150.625-150.625S-301.25-83.188-301.25 0s67.437 150.625 150.625 150.625S0 83.188 0 0Z" style="stroke-width:30;stroke-linecap:butt;stroke-linejoin:miter;stroke-miterlimit:10;stroke-dasharray:none;stroke-opacity:1" transform="translate(374.625 288)" fill="none" stroke="#ffffff" stroke-width="30" stroke-linecap="butt" stroke-linejoin="miter" stroke-miterlimit="10" stroke-dasharray="none" stroke-opacity="" data-original="#ffffff" class=""></path><path d="M0 0c0 16.646-13.494 30.14-30.139 30.14h-16.166c-16.635 0-30.12-13.486-30.12-30.121 0-16.635 13.485-30.121 30.12-30.121h16.545c16.635 0 30.121-13.485 30.121-30.12S-13.125-90.343-29.76-90.343h-16.839c-16.34 0-29.587 13.247-29.587 29.588" style="stroke-width:30;stroke-linecap:butt;stroke-linejoin:miter;stroke-miterlimit:10;stroke-dasharray:none;stroke-opacity:1" transform="translate(262.032 318.102)" fill="none" stroke="#ffffff" stroke-width="30" stroke-linecap="butt" stroke-linejoin="miter" stroke-miterlimit="10" stroke-dasharray="none" stroke-opacity="" data-original="#ffffff" class=""></path><path d="M0 0v-34.654" style="stroke-width:30;stroke-linecap:butt;stroke-linejoin:miter;stroke-miterlimit:10;stroke-dasharray:none;stroke-opacity:1" transform="translate(224 382.896)" fill="none" stroke="#ffffff" stroke-width="30" stroke-linecap="butt" stroke-linejoin="miter" stroke-miterlimit="10" stroke-dasharray="none" stroke-opacity="" data-original="#ffffff" class=""></path><path d="M0 0v-34.654" style="stroke-width:30;stroke-linecap:butt;stroke-linejoin:miter;stroke-miterlimit:10;stroke-dasharray:none;stroke-opacity:1" transform="translate(224 227.759)" fill="none" stroke="#ffffff" stroke-width="30" stroke-linecap="butt" stroke-linejoin="miter" stroke-miterlimit="10" stroke-dasharray="none" stroke-opacity="" data-original="#ffffff" class=""></path><path d="M0 0c-70.028 0-127 56.972-127 127 0 70.028 56.972 127 127 127 70.028 0 127-56.972 127-127C127 56.972 70.028 0 0 0" style="fill-opacity:1;fill-rule:nonzero;stroke:none" transform="translate(400 -15)" fill="#000000" data-original="#000000" class=""></path><path d="M0 0c-37.93 0-73.589-14.771-100.409-41.591C-127.229-68.411-142-104.07-142-142c0-37.93 14.771-73.589 41.591-100.409C-73.589-269.229-37.93-284 0-284c37.93 0 73.589 14.771 100.409 41.591C127.229-215.589 142-179.93 142-142c0 37.93-14.771 73.589-41.591 100.409C73.589-14.771 37.93 0 0 0m0-30c61.856 0 112-50.145 112-112S61.856-254 0-254s-112 50.145-112 112S-61.856-30 0-30" style="fill-opacity:1;fill-rule:nonzero;stroke:none" transform="translate(400 254)" fill="#ffffff" data-original="#ffffff"></path><path d="M0 0v30" style="stroke-width:30;stroke-linecap:butt;stroke-linejoin:miter;stroke-miterlimit:10;stroke-dasharray:none;stroke-opacity:1" transform="translate(400 42.813)" fill="none" stroke="#ffffff" stroke-width="30" stroke-linecap="butt" stroke-linejoin="miter" stroke-miterlimit="10" stroke-dasharray="none" stroke-opacity="" data-original="#ffffff" class=""></path><path d="M0 0v89.24" style="stroke-width:30;stroke-linecap:butt;stroke-linejoin:miter;stroke-miterlimit:10;stroke-dasharray:none;stroke-opacity:1" transform="translate(400 91.947)" fill="none" stroke="#ffffff" stroke-width="30" stroke-linecap="butt" stroke-linejoin="miter" stroke-miterlimit="10" stroke-dasharray="none" stroke-opacity="" data-original="#ffffff" class=""></path></g></g></g></svg>