<svg xmlns="http://www.w3.org/2000/svg" version="1.1" xmlns:xlink="http://www.w3.org/1999/xlink" width="512" height="512" x="0" y="0" viewBox="0 0 512 512" style="enable-background:new 0 0 512 512" xml:space="preserve" class=""><g><path d="m425.002 163.578 4.154 84.75-26.451-22.056a5.002 5.002 0 0 0-6.404 0l-26.452 22.056 4.155-84.751a16.655 16.655 0 0 1 3.702 3.792c5.655 7.961 12.785 11.831 21.797 11.831s16.142-3.87 21.797-11.832a16.665 16.665 0 0 1 3.702-3.79zM324.222 54.654l-25.774-14.88-91.109 52.602 25.774 14.881 91.109-52.602zm-30.773 98.983-25.773-14.88v41.009a5.001 5.001 0 0 1-9.081 2.89l-12.789-18.063-11.445 2.949a4.999 4.999 0 0 1-6.248-4.842v-46.783l-25.773-14.88v105.202l91.109 52.602V153.638zm106.053-39.487c11.883 0 21.551-9.667 21.551-21.55s-9.668-21.55-21.551-21.55-21.55 9.667-21.55 21.55 9.667 21.55 21.55 21.55zm-136.826 10.173 50.355-29.073a29.436 29.436 0 0 1-.128-2.65c0-9.014 3.87-16.144 11.832-21.797 3.089-2.194 5.168-5.112 6.126-8.435l-87.748 50.662 19.562 11.294zM132.006 282.38l91.108-52.601-25.773-14.88-91.108 52.602 25.773 14.88zM330.525 78.956c8.312-5.904 12.258-15.43 10.555-25.483-1.096-6.459.178-10.957 4.258-15.037s8.571-5.353 15.038-4.258c10.045 1.699 19.578-2.242 25.482-10.555C389.653 18.28 393.734 16 399.503 16s9.85 2.279 13.645 7.623c5.904 8.312 15.427 12.258 25.483 10.555 6.456-1.096 10.955.177 15.036 4.258 4.079 4.079 5.353 8.576 4.259 15.038-1.703 10.052 2.243 19.579 10.555 25.482 5.343 3.794 7.622 7.875 7.622 13.645s-2.279 9.85-7.622 13.644c-8.312 5.904-12.259 15.431-10.556 25.484 1.096 6.459-.178 10.956-4.259 15.036-4.077 4.079-8.572 5.353-15.036 4.259-10.057-1.704-19.58 2.243-25.482 10.555-3.795 5.343-7.876 7.622-13.645 7.622s-9.85-2.279-13.645-7.622c-4.998-7.038-12.592-10.945-20.904-10.945-1.506 0-3.037.128-4.579.39-6.457 1.093-10.955-.178-15.036-4.258-4.079-4.079-5.353-8.576-4.259-15.037 1.703-10.053-2.243-19.579-10.556-25.483-5.342-3.793-7.621-7.874-7.621-13.644s2.279-9.851 7.622-13.645zM367.952 92.6c0 17.397 14.153 31.55 31.55 31.55s31.551-14.153 31.551-31.55-14.153-31.55-31.551-31.55-31.55 14.153-31.55 31.55zm-129.839 63.647 8.533-2.199a4.997 4.997 0 0 1 5.329 1.953l5.7 8.051v-31.069l-19.562-11.294zM71.671 293.651l8.532-2.199a5.004 5.004 0 0 1 5.329 1.953l5.7 8.051v-31.069L71.67 259.093v34.558zm24.562-31.924 91.108-52.602-19.562-11.294-91.108 52.602zm61.547-69.669-25.774-14.881-91.108 52.602 25.774 14.881zm-30.773 98.983-25.773-14.88v41.01a5.001 5.001 0 0 1-9.08 2.89l-12.79-18.063-11.443 2.949a4.996 4.996 0 0 1-4.311-.89 4.998 4.998 0 0 1-1.938-3.952v-46.783l-25.773-14.88v105.202l91.108 52.602V291.043zM338.27 153.836c-4.556-4.555-7.021-9.834-7.468-15.99l-27.352 15.791V258.84l57.5-33.198 3.185-64.982c-.688.034-1.384.103-2.088.222-9.629 1.63-17.404-.673-23.777-7.047zm-110.153 84.603-91.109 52.602v105.203l55.335-31.948v-38.42a5 5 0 0 1 2.5-4.33l33.274-19.211V238.44zm39.561 174.828a5.001 5.001 0 0 1-9.081 2.89l-12.789-18.063-11.444 2.949c-1.493.384-3.087.057-4.31-.89s-1.938-2.406-1.938-3.952v-46.783l-25.773-14.88V439.74l91.109 52.602V387.14l-25.774-14.881v41.01zm57.059-298.87c-3.863-2.744-6.755-5.838-8.717-9.324l-43.342 25.024 25.773 14.88 32.967-19.033c-.344-4.612-2.66-8.69-6.682-11.547zM207.342 325.876l25.774 14.88 91.108-52.602-25.774-14.88zm91.109 52.602 91.11-52.602-25.774-14.88-91.109 52.602zm-35.773-20.654 91.109-52.602-19.562-11.294-91.108 52.602 19.562 11.294zm40.774 134.517 91.108-52.602V334.537l-91.108 52.601zm-51.474-102.838 5.699 8.05v-31.068l-19.562-11.294v34.558l8.533-2.199a4.998 4.998 0 0 1 5.329 1.953z" fill="#000000" opacity="1" data-original="#000000" class=""></path></g></svg>