<svg xmlns="http://www.w3.org/2000/svg" version="1.1" xmlns:xlink="http://www.w3.org/1999/xlink" width="512" height="512" x="0" y="0" viewBox="0 0 64 64" style="enable-background:new 0 0 512 512" xml:space="preserve" class=""><g><path d="M59 38v14h1a1 1 0 0 0 1-1V39a1 1 0 0 0-1-1zM35 5h6.577A23.988 23.988 0 0 0 8 27v3h4v-3A20.012 20.012 0 0 1 31.544 7.023 3.986 3.986 0 0 1 35 5zM53 32h2v2h-2zM51 54h5a1 1 0 0 0 1-1V37a1 1 0 0 0-1-1h-5zM49 51.586V38.414l-2 2v9.172zM52 29h4v1h-4zM3 39v12a1 1 0 0 0 1 1h1V38H4a1 1 0 0 0-1 1z" fill="#000000" opacity="1" data-original="#000000" class=""></path><path d="M33 9v16a2 2 0 0 0 2 2h5a1 1 0 0 1 1 1v2.586l3.293-3.293A1 1 0 0 1 45 27h14a2 2 0 0 0 2-2V9a2 2 0 0 0-2-2H35a2 2 0 0 0-2 2zm23 11v-5h2v1.556A3.959 3.959 0 0 1 60 16v2a2 2 0 0 0-2 2v2h-2zm-7-2v-6h2v3.184A2.966 2.966 0 0 1 52 15a3 3 0 0 1 3 3v4h-2v-4a1 1 0 0 0-2 0v4h-2zm-8.832.444 4-6A1 1 0 0 1 46 13v5h2v2h-2v2h-2v-2h-3a1 1 0 0 1-.832-1.555zM40 15a3.861 3.861 0 0 1-.843 2.405L37.081 20H40v2h-5a1 1 0 0 1-.781-1.625l3.381-4.219A1.857 1.857 0 0 0 38 15a1 1 0 0 0-2 0h-2a3 3 0 0 1 6 0zM15 51.586l2-2v-9.172l-2-2zM7 37v16a1 1 0 0 0 1 1h5V36H8a1 1 0 0 0-1 1zM9 32h2v2H9z" fill="#000000" opacity="1" data-original="#000000" class=""></path><path d="m44 16.303-1.131 1.696H44zM35 32h2v2h-2zM31 32h2v2h-2zM27 32h2v2h-2zM60 54v1a3 3 0 0 1-3 3H36.816A2.99 2.99 0 0 0 34 56h-4a3 3 0 0 0 0 6h4a2.99 2.99 0 0 0 2.816-2H57a5.006 5.006 0 0 0 5-5v-1.78a2.981 2.981 0 0 1-2 .78z" fill="#000000" opacity="1" data-original="#000000" class=""></path></g></svg>