<svg xmlns="http://www.w3.org/2000/svg" version="1.1" xmlns:xlink="http://www.w3.org/1999/xlink" width="512" height="512" x="0" y="0" viewBox="0 0 64 64" style="enable-background:new 0 0 512 512" xml:space="preserve"><g><path d="m61.71 50.29-5-5c-.19-.18-.44-.29-.71-.29h-2.65C55.74 41.09 57 36.64 57 32 57 18.21 45.79 7 32 7S7 18.21 7 32c0 4.64 1.26 9.09 3.65 13H3c-.55 0-1 .45-1 1v10c0 .55.45 1 1 1h53c.27 0 .52-.11.71-.29l5-5c.39-.39.39-1.03 0-1.42zM32 19c7.17 0 13 5.83 13 13s-5.83 13-13 13-13-5.83-13-13 5.83-13 13-13zM4 55v-8h16.58l-3.29 3.29c-.39.39-.39 1.03 0 1.42L20.58 55zm28 0h-8.58l-4.01-4 4-4H32c8.27 0 15-6.73 15-15s-6.54-14.81-14.64-15l-3.94-3.14L32.47 9C44.94 9.26 55 19.47 55 32c0 4.86-1.5 9.5-4.33 13.42C46.36 51.42 39.38 55 32 55z" fill="#000000" opacity="1" data-original="#000000"></path><path d="M32 42c5.51 0 10-4.49 10-10s-4.49-10-10-10-10 4.49-10 10 4.49 10 10 10zm-5.23-10.08a.988.988 0 0 1 1.41-.05l1.89 1.76 5.75-5.36a.988.988 0 0 1 1.41.05c.38.4.36 1.03-.05 1.41l-6.43 6c-.19.18-.43.27-.68.27s-.49-.09-.68-.27l-2.57-2.4a.988.988 0 0 1-.05-1.41z" fill="#000000" opacity="1" data-original="#000000"></path></g></svg>