<svg xmlns="http://www.w3.org/2000/svg" version="1.1" xmlns:xlink="http://www.w3.org/1999/xlink" width="512" height="512" x="0" y="0" viewBox="0 0 512 512" style="enable-background:new 0 0 512 512" xml:space="preserve" class=""><g><path fill-rule="evenodd" d="M512 430.47v31.12c0 5.47-4.45 9.92-9.92 9.92h-129.2V443c0-22.05-7.4-42.43-19.84-58.82a71.59 71.59 0 0 1 17.09-14.51c12.44 16.07 31.89 26.42 53.77 26.42s41.33-10.35 53.74-26.42c20.55 12.5 34.36 35.12 34.36 60.8zm-370.12-60.8c-12.42 16.07-31.89 26.42-53.77 26.42-21.86 0-41.33-10.35-53.74-26.42C13.81 382.17 0 404.79 0 430.47v31.12c0 5.47 4.45 9.92 9.92 9.92h129.2V443c0-22.05 7.4-42.43 19.84-58.82a70.963 70.963 0 0 0-17.08-14.51zm282.02-92.89c-28.32 0-51.39 23.07-51.39 51.39s23.07 51.39 51.39 51.39 51.39-23.07 51.39-51.39-23.08-51.39-51.39-51.39zm-335.8 0c-28.29 0-51.39 23.07-51.39 51.39s23.1 51.39 51.39 51.39c28.32 0 51.42-23.07 51.42-51.39s-23.1-51.39-51.42-51.39zm80.59-127.22V44.11c0-12.02 9.84-21.86 21.85-21.86h130.9c12.02 0 21.85 9.84 21.85 21.86v105.45c0 12.02-9.84 21.85-21.85 21.85h-38.98c-1.81 0-3.4.91-4.31 2.49l-17.86 30.93c-.91 1.59-2.47 2.47-4.31 2.47-1.81 0-3.4-.88-4.31-2.47l-17.86-30.93c-.91-1.59-2.47-2.49-4.31-2.49h-38.98c-11.99 0-21.83-9.83-21.83-21.85zm38.58-52.73c0 26.84 21.88 48.73 48.73 48.73 26.84 0 48.73-21.88 48.73-48.73S282.84 48.11 256 48.11s-48.73 21.88-48.73 48.72zm29.82-11.22h.54c4.54 0 8.25-3.71 8.25-8.28 0-4.56-3.71-8.25-8.25-8.25h-.54c-4.56 0-8.25 3.69-8.25 8.25 0 4.57 3.69 8.28 8.25 8.28zm37.31 0h.51c4.56 0 8.28-3.71 8.28-8.28 0-4.56-3.71-8.25-8.28-8.25h-.51c-4.56 0-8.28 3.69-8.28 8.25 0 4.57 3.71 8.28 8.28 8.28zm-39.92 13.41c-3.97 2.24-5.36 7.29-3.09 11.23a28.37 28.37 0 0 0 10.4 10.52c4.2 2.44 9.04 3.83 14.2 3.83s10.01-1.39 14.2-3.83a28.45 28.45 0 0 0 10.43-10.52c2.24-3.94.85-8.99-3.12-11.23-3.94-2.24-8.96-.85-11.23 3.09a11.867 11.867 0 0 1-4.34 4.39c-1.73.99-3.77 1.56-5.95 1.56s-4.22-.57-5.95-1.56c-1.81-1.08-3.32-2.58-4.34-4.39-2.22-3.94-7.26-5.33-11.21-3.09zm139.72 52.52 25.65 18.6-9.84 30.1c-.74 2.27.03 4.65 1.96 6.04 1.9 1.39 4.39 1.39 6.32-.03l25.6-18.65 25.6 18.65c1.93 1.42 4.39 1.42 6.32.03s2.69-3.77 1.96-6.04l-9.86-30.1 25.68-18.6c1.93-1.39 2.69-3.74 1.96-6.01-.74-2.24-2.75-3.71-5.1-3.71l-31.69.08-9.76-30.16c-.74-2.27-2.75-3.74-5.1-3.74-2.38 0-4.39 1.47-5.1 3.74l-9.75 30.16-31.69-.08c-2.35 0-4.39 1.47-5.1 3.71-.75 2.27.02 4.62 1.94 6.01zm-335.79 0 25.68 18.6-9.86 30.1c-.74 2.27.03 4.65 1.96 6.04s4.42 1.39 6.32-.03l25.6-18.65 25.63 18.65c1.9 1.42 4.39 1.42 6.32.03 1.9-1.39 2.66-3.77 1.93-6.04l-9.84-30.1 25.68-18.6c1.9-1.39 2.69-3.74 1.96-6.01-.74-2.24-2.75-3.71-5.13-3.71l-31.69.08-9.72-30.16c-.74-2.27-2.75-3.74-5.13-3.74-2.35 0-4.37 1.47-5.1 3.74L73.3 141.9l-31.69-.08c-2.38 0-4.39 1.47-5.13 3.71-.76 2.27.01 4.62 1.93 6.01zM311.62 370.6c-13.75 15.14-33.56 24.66-55.62 24.66-22.05 0-41.87-9.52-55.59-24.66-26.5 13.38-44.76 40.85-44.76 72.4v35.46c0 6.21 5.07 11.28 11.28 11.28h32.74v-31.12c0-4.56 3.71-8.25 8.28-8.25s8.25 3.69 8.25 8.25v31.12h79.6v-31.12c0-4.56 3.71-8.25 8.25-8.25 4.56 0 8.28 3.69 8.28 8.25v31.12h32.74c6.21 0 11.31-5.07 11.31-11.28V443c-.01-31.55-18.29-59.02-44.76-72.4zm-114.16-50.4c0 32.23 26.28 58.54 58.54 58.54s58.56-26.31 58.56-58.54c0-32.26-26.31-58.56-58.56-58.56-32.26 0-58.54 26.31-58.54 58.56z" clip-rule="evenodd" fill="#000000" opacity="1" data-original="#000000"></path></g></svg>