<svg xmlns="http://www.w3.org/2000/svg" version="1.1" xmlns:xlink="http://www.w3.org/1999/xlink" width="512" height="512" x="0" y="0" viewBox="0 0 60 60" style="enable-background:new 0 0 512 512" xml:space="preserve" class=""><g><path d="M58 56V31h-8.223a1.767 1.767 0 0 1-1.464-2.759 4.023 4.023 0 0 0 .617-3.006 4 4 0 1 0-7.24 3.012 1.746 1.746 0 0 1 .1 1.806 1.77 1.77 0 0 1-1.568.947H31v7.8a6 6 0 1 1 0 10.4V58h25a2 2 0 0 0 2-2Z" fill="#000000" opacity="1" data-original="#000000" class=""></path><path d="M56 2H31v8.223a1.767 1.767 0 0 1-2.759 1.464 4.014 4.014 0 0 0-3.006-.617 4 4 0 1 0 3.012 7.24 1.749 1.749 0 0 1 1.806-.1A1.77 1.77 0 0 1 31 19.778V29h8.8a6 6 0 1 1 10.4 0H58V4a2 2 0 0 0-2-2ZM40.707 14.293a1 1 0 1 1-1.414 1.414l-4-4a1 1 0 0 1 0-1.414l4-4a1 1 0 1 1 1.414 1.414L37.414 11Zm4.273 1.9A1 1 0 0 1 44 17a.948.948 0 0 1-.2-.02 1 1 0 0 1-.78-1.18l2-10a1 1 0 0 1 1.96.392Zm9.727-4.489-4 4a1 1 0 0 1-1.414-1.414L52.586 11l-3.293-3.293a1 1 0 0 1 1.414-1.414l4 4a1 1 0 0 1 0 1.414ZM31.754 47.311a4 4 0 1 0 3.011-7.241 4.015 4.015 0 0 0-3.006.617A1.767 1.767 0 0 1 29 39.223V31h-7.8a6 6 0 0 1-3.933 8.87 6.231 6.231 0 0 1-1.258.13 6 6 0 0 1-5.209-9H2v25a2 2 0 0 0 2 2h25v-9.222a1.77 1.77 0 0 1 .947-1.569 1.746 1.746 0 0 1 1.807.102Zm-21.047 4.982a1 1 0 1 1-1.414 1.414l-4-4a1 1 0 0 1 0-1.414l4-4a1 1 0 0 1 1.414 1.414L7.414 49Zm4.273 1.9A1 1 0 0 1 14 55a.948.948 0 0 1-.2-.02 1 1 0 0 1-.78-1.18l2-10a1 1 0 1 1 1.96.392Zm9.727-4.489-4 4a1 1 0 0 1-1.414-1.414L22.586 49l-3.293-3.293a1 1 0 0 1 1.414-1.414l4 4a1 1 0 0 1 0 1.414Z" fill="#000000" opacity="1" data-original="#000000" class=""></path><path d="M24.874 9.1A6 6 0 0 1 29 9.8V2H4a2 2 0 0 0-2 2v25h9.222a1.77 1.77 0 0 1 1.569.947 1.746 1.746 0 0 1-.1 1.807 4 4 0 1 0 7.241 3.011 4.023 4.023 0 0 0-.617-3.006A1.767 1.767 0 0 1 20.777 29H29v-8.8a6 6 0 0 1-7.652-1.41 6 6 0 0 1 3.526-9.69Z" fill="#000000" opacity="1" data-original="#000000" class=""></path></g></svg>