<svg xmlns="http://www.w3.org/2000/svg" version="1.1" xmlns:xlink="http://www.w3.org/1999/xlink" width="512" height="512" x="0" y="0" viewBox="0 0 512 512" style="enable-background:new 0 0 512 512" xml:space="preserve" class=""><g><path d="m245.954 111.032-1.773-1.283 2.191.004h.014a9.285 9.285 0 0 0 8.862-6.451l.672-2.083.672 2.084a9.287 9.287 0 0 0 8.865 6.45h.014l2.188-.004-1.772 1.282a9.282 9.282 0 0 0-3.392 10.439l.68 2.08-1.768-1.29c-1.641-1.198-3.564-1.796-5.488-1.796s-3.846.599-5.487 1.795l-1.768 1.29.681-2.082a9.284 9.284 0 0 0-3.392-10.437zm-79.716-10.925c-.949-1.518-.613-3.419.798-4.522l18.97-14.821c3.63-2.836 5.888-6.747 6.529-11.31l3.35-23.839c.25-1.773 1.75-3.001 3.518-2.952l24.058.841c4.601.166 8.849-1.384 12.273-4.467l17.889-16.107c1.331-1.199 3.263-1.199 4.593 0l17.889 16.108c3.424 3.083 7.665 4.631 12.273 4.467l24.058-.841c1.808-.06 3.27 1.179 3.519 2.952l3.35 23.839c.642 4.562 2.899 8.473 6.53 11.31l18.97 14.82c1.411 1.102 1.746 3.004.797 4.522l-12.757 20.415c-2.442 3.908-3.227 8.356-2.268 12.862l5.005 23.547c.372 1.751-.594 3.424-2.296 3.977l-22.895 7.438c-4.382 1.424-7.841 4.327-10.005 8.395l-11.301 21.255c-.84 1.581-2.654 2.243-4.316 1.571l-22.319-9.018c-2.136-.863-4.333-1.294-6.53-1.294s-4.395.432-6.53 1.294l-22.32 9.018c-1.66.67-3.475.011-4.316-1.57l-11.301-21.255c-2.163-4.068-5.622-6.971-10.004-8.396l-22.895-7.438c-1.703-.553-2.669-2.226-2.297-3.977l5.005-23.547c.958-4.506.174-8.954-2.268-12.862l-12.757-20.415zm27.43 10.823c0 34.326 27.926 62.251 62.252 62.251s62.252-27.926 62.252-62.251-27.926-62.251-62.252-62.251-62.252 27.926-62.252 62.251zm14 0c0-26.606 21.646-48.251 48.252-48.251s48.252 21.645 48.252 48.251-21.646 48.251-48.252 48.251-48.252-21.646-48.252-48.251zm16.538 1.646 10.77 7.793-4.133 12.636a9.285 9.285 0 0 0 3.377 10.425c1.638 1.19 3.556 1.785 5.474 1.785s3.847-.599 5.487-1.795l10.739-7.834 10.739 7.833a9.282 9.282 0 0 0 10.961.011 9.285 9.285 0 0 0 3.376-10.427l-4.132-12.634 10.771-7.794a9.287 9.287 0 0 0 3.396-10.419 9.285 9.285 0 0 0-8.856-6.435h-.018l-13.293.026-4.083-12.649c-1.245-3.86-4.806-6.453-8.861-6.453s-7.615 2.592-8.861 6.451l-4.083 12.651-13.293-.026h-.018a9.285 9.285 0 0 0-8.854 6.433 9.288 9.288 0 0 0 3.396 10.422zm116.916 126.095-23.337-58.006-3.067.997c-.949.309-1.501.772-1.97 1.653l-11.301 21.255a17.395 17.395 0 0 1-21.921 7.978l-.986-.398 14.798 44.128 18.58-23.221 29.205 5.614zm-108.807-26.123a17.396 17.396 0 0 1-21.921-7.978l-11.302-21.256c-.468-.881-1.021-1.345-1.97-1.653l-3.067-.996-23.336 58.006 29.205-5.614 18.58 23.221 14.798-44.129zM111.767 363.944h.096c24.658-.024 44.712-20.091 44.712-44.755s-20.077-44.756-44.756-44.756-44.756 20.078-44.756 44.756 20.049 44.726 44.704 44.755zm288.161-.04.055-.001h.065c24.662-.035 44.715-20.107 44.715-44.777s-20.087-44.779-44.779-44.779-44.779 20.087-44.779 44.779 20.057 44.747 44.722 44.777zM255.87 395.368h.103c24.668-.028 44.728-20.103 44.728-44.777s-20.087-44.779-44.779-44.779-44.779 20.087-44.779 44.779 20.06 44.749 44.727 44.777zm-68.682 27.555c-14.855-27.465-43.877-44.962-75.325-44.979l-.044.001-.04-.001c-44.84.02-81.732 34.687-85.305 78.627h137.503a100.056 100.056 0 0 1 23.211-33.648zm212.845-45.019-.049.001-.056-.001c-31.443.021-60.466 17.511-75.331 44.965a100.073 100.073 0 0 1 23.268 33.702h137.504c-3.57-43.961-40.476-78.641-85.335-78.667zm-144.072 31.465h-.039l-.04-.001c-44.865.02-81.776 34.703-85.346 78.668h170.77c-3.57-43.964-40.481-78.647-85.345-78.667z" fill="#000000" opacity="1" data-original="#000000"></path></g></svg>