<svg xmlns="http://www.w3.org/2000/svg" version="1.1" xmlns:xlink="http://www.w3.org/1999/xlink" width="512" height="512" x="0" y="0" viewBox="0 0 32 32" style="enable-background:new 0 0 512 512" xml:space="preserve" class=""><g><path d="M11.429 16a5.715 5.715 0 1 0-5.715-5.714A5.72 5.72 0 0 0 11.429 16zM18.905 20.721A10.434 10.434 0 0 0 1 28a1 1 0 0 0 1 1h18.86a1 1 0 0 0 1-1 10.067 10.067 0 0 0-.485-3.124 10.36 10.36 0 0 0-2.47-4.155z" fill="#9ca3af" opacity="1" data-original="#000000"></path><circle cx="23.5" cy="12.25" r="4.25" fill="#9ca3af" opacity="1" data-original="#000000"></circle><path d="M23.5 17.67a7.482 7.482 0 0 0-3.806 1.057c.217.194.436.385.641.595a12.388 12.388 0 0 1 2.952 4.966 11.488 11.488 0 0 1 .437 1.882H30a1 1 0 0 0 1-1 7.508 7.508 0 0 0-7.5-7.5z" fill="#9ca3af" opacity="1" data-original="#000000"></path></g></svg>