<svg xmlns="http://www.w3.org/2000/svg" version="1.1" xmlns:xlink="http://www.w3.org/1999/xlink" width="512" height="512" x="0" y="0" viewBox="0 0 510 510" style="enable-background:new 0 0 512 512" xml:space="preserve" fill-rule="evenodd" class=""><g><path d="M260.502 282.971c-39.423 0-71.549-32.15-71.549-71.548 0-39.399 32.126-71.525 71.549-71.525 39.398 0 71.525 32.126 71.525 71.525 0 39.398-32.127 71.548-71.525 71.548zm-127.216 89.465 4.865 46.804h-12.676a5 5 0 0 1-4.951-5.702 140.8 140.8 0 0 1 12.762-41.102zm249.559 46.804 4.855-46.793a140.539 140.539 0 0 1 12.747 41.093 4.99 4.99 0 0 1-4.942 5.691c-5.383.009-12.66.009-12.66.009zm-39.892-99.766H178.032c23.219-16.68 51.696-26.503 82.47-26.503 30.763 0 59.235 9.823 82.451 26.503zM134.455 499.091a5 5 0 0 1-5-5v-25.727a5 5 0 0 1 5-5h252.07a5 5 0 0 1 5 5v25.727a5 5 0 0 1-5 5h-252.07zM76.001 81.023a5.283 5.283 0 0 1 10.052 0l10.67 32.839a5.286 5.286 0 0 0 5.026 3.652h34.529a5.286 5.286 0 0 1 3.107 9.56L111.45 147.37a5.285 5.285 0 0 0-1.92 5.908l10.67 32.839a5.285 5.285 0 0 1-8.132 5.909L84.133 171.73a5.288 5.288 0 0 0-6.213 0l-27.934 20.296a5.285 5.285 0 0 1-8.133-5.909l10.67-32.839a5.282 5.282 0 0 0-1.92-5.908l-27.934-20.296a5.285 5.285 0 0 1 3.106-9.56h34.529a5.285 5.285 0 0 0 5.026-3.652zm347.946 0a5.285 5.285 0 0 1 10.052 0l10.671 32.839a5.285 5.285 0 0 0 5.026 3.652h34.529a5.285 5.285 0 0 1 3.106 9.56l-27.934 20.296a5.282 5.282 0 0 0-1.92 5.908l10.67 32.839a5.286 5.286 0 0 1-8.133 5.909L432.08 171.73a5.288 5.288 0 0 0-6.213 0l-27.935 20.296a5.285 5.285 0 0 1-8.132-5.909l10.67-32.839a5.285 5.285 0 0 0-1.92-5.908l-27.935-20.296a5.286 5.286 0 0 1 3.107-9.56h34.529a5.286 5.286 0 0 0 5.026-3.652zM255.464 14.56a5.284 5.284 0 0 1 10.052 0l10.67 32.84a5.286 5.286 0 0 0 5.026 3.651h34.53a5.286 5.286 0 0 1 3.106 9.561l-27.935 20.295a5.287 5.287 0 0 0-1.92 5.909l10.671 32.839a5.286 5.286 0 0 1-8.133 5.909l-27.935-20.296a5.283 5.283 0 0 0-6.212 0l-27.935 20.296a5.285 5.285 0 0 1-8.133-5.909l10.67-32.839a5.285 5.285 0 0 0-1.919-5.909l-27.935-20.295a5.286 5.286 0 0 1 3.106-9.561h34.529a5.286 5.286 0 0 0 5.027-3.651zm-98.303 432.804-9.68-93.12a17.012 17.012 0 0 1 16.92-18.77h192.181a17.013 17.013 0 0 1 16.921 18.767l-9.662 93.123zm103.341-33.116c13.015 0 23.63-8.238 23.63-18.311 0-10.097-10.615-18.311-23.63-18.311s-23.654 8.214-23.654 18.311c0 10.073 10.639 18.311 23.654 18.311z" fill="#9ca3af" opacity="1" data-original="#000000"></path></g></svg>