<svg xmlns="http://www.w3.org/2000/svg" version="1.1" xmlns:xlink="http://www.w3.org/1999/xlink" width="512" height="512" x="0" y="0" viewBox="0 0 64 64" style="enable-background:new 0 0 512 512" xml:space="preserve" class=""><g><path d="M35.11 44.16v4.97a.49.49 0 0 0 .98 0v-4.97a.49.49 0 0 0-.98 0zM50.57 28.7c0 .27.22.49.49.49h4.97a.49.49 0 0 0 0-.98h-4.97a.49.49 0 0 0-.49.49z" fill="#9ca3af" opacity="1" data-original="#000000" class=""></path><path d="M35.6.3C21.98.3 10.24 10.12 7.72 23.35h6.05C16.18 13.33 25.13 6.21 35.6 6.21c12.41 0 22.5 10.09 22.5 22.49 0 12.41-10.09 22.5-22.5 22.5-7.1 0-13.69-3.3-17.91-8.9-.6.6-1.23 1.11-1.86 1.53l.26.57c2.53 1.78 5.03 5.08 6.36 9.49C26.48 56 30.97 57.1 35.6 57.1 51.26 57.1 64 44.36 64 28.7S51.26.3 35.6.3z" fill="#9ca3af" opacity="1" data-original="#000000" class=""></path><path d="M36.09 13.25V8.27a.49.49 0 0 0-.98 0v4.97c0 .27.22.49.49.49.27.01.49-.21.49-.48zM42.47 12.62c.19 0 .38-.11.45-.3l.95-2.3c.1-.25-.02-.54-.27-.64s-.54.01-.64.27l-.95 2.3c-.1.25.02.54.27.64.06.02.13.03.19.03zM48.29 16.51c.13 0 .25-.05.35-.14l1.76-1.76c.19-.19.19-.5 0-.7a.501.501 0 0 0-.7 0l-1.76 1.76c-.19.19-.19.5 0 .7.1.09.23.14.35.14zM52.18 22.33c.06 0 .13-.01.19-.04l2.3-.95c.25-.1.37-.39.27-.64s-.39-.37-.64-.27l-2.3.95c-.25.1-.37.39-.27.64.08.2.26.31.45.31zM52.37 35.12c-.25-.1-.54.01-.64.27-.1.25.02.54.27.64l2.3.95c.06.03.13.04.19.04.19 0 .38-.11.45-.3.1-.25-.02-.54-.27-.64zM47.94 41.74l1.76 1.76c.1.1.22.14.35.14s.25-.05.35-.14c.19-.19.19-.5 0-.7l-1.76-1.76a.501.501 0 0 0-.7 0c-.19.2-.19.51 0 .7zM42.28 44.83c-.25.1-.37.39-.27.64l.95 2.3a.486.486 0 0 0 .64.26c.25-.1.37-.39.27-.64l-.95-2.3a.49.49 0 0 0-.64-.26zM27.6 48.04c.06.03.13.04.19.04.19 0 .38-.11.45-.3l.95-2.3c.1-.25-.02-.54-.27-.64s-.54.02-.64.27l-.95 2.3c-.1.23.01.52.27.63zM22.57 41.05l-1.76 1.76c-.19.19-.19.5 0 .7.1.1.22.14.35.14s.25-.05.35-.14l1.76-1.76c.19-.19.19-.5 0-.7-.2-.2-.51-.2-.7 0zM18.84 22.29c.06.03.13.04.19.04.19 0 .38-.11.45-.3.1-.25-.02-.54-.27-.64l-2.3-.95c-.25-.1-.54.01-.64.27-.1.25.02.54.27.64zM22.91 16.51c.13 0 .25-.05.35-.14.19-.19.19-.5 0-.7l-1.76-1.76a.501.501 0 0 0-.7 0c-.19.19-.19.5 0 .7l1.76 1.76c.1.09.23.14.35.14zM28.28 12.31a.486.486 0 0 0 .64.26c.25-.1.37-.39.27-.64l-.95-2.3c-.1-.25-.39-.37-.64-.27s-.37.39-.27.64zM34.37 17.95v8.3c-.9.45-1.53 1.38-1.53 2.46a2.76 2.76 0 0 0 2.76 2.76c.3 0 .59-.06.86-.15l8.75 8.75c.23.23.54.36.87.36s.64-.13.87-.36c.48-.48.48-1.26 0-1.74l-8.75-8.75c.09-.27.15-.56.15-.87 0-1.08-.62-2-1.52-2.45v-8.3c0-.67-.56-1.23-1.23-1.23a1.22 1.22 0 0 0-1.23 1.22z" fill="#9ca3af" opacity="1" data-original="#000000" class=""></path><path d="M22.74 60.13h-.31c-.16-7.57-4.07-13.55-7.94-15.58-.19-.1-.31-.31-.31-.54s.12-.43.31-.53c3.87-2.04 7.78-8.01 7.94-15.58h.31c.71 0 1.29-.58 1.29-1.29v-.98c0-.71-.58-1.29-1.29-1.29H1.29A1.28 1.28 0 0 0 0 25.63v.98c0 .71.58 1.29 1.29 1.29h.3c.16 7.58 4.08 13.56 7.95 15.58.19.1.31.31.31.54s-.12.44-.31.54c-3.87 2.03-7.79 8-7.95 15.58h-.3A1.28 1.28 0 0 0 0 61.43v.98c0 .71.58 1.29 1.29 1.29h21.45c.71 0 1.29-.58 1.29-1.29v-.98c0-.72-.58-1.3-1.29-1.3zm-19.57 0c.16-6.89 3.73-12.42 7.11-14.19.71-.37 1.16-1.11 1.16-1.93s-.44-1.56-1.15-1.93c-3.37-1.76-6.94-7.3-7.11-14.19h17.69c-.16 6.87-3.73 12.42-7.1 14.19-.71.37-1.15 1.11-1.15 1.93s.44 1.56 1.15 1.93c3.37 1.77 6.94 7.31 7.1 14.19z" fill="#9ca3af" opacity="1" data-original="#000000" class=""></path><path d="M18.76 32.24c0-.04 0-.09-.01-.13-2.23-.16-2.97.4-5.88 1.58-2.2.89-5.6-.22-7.58-.93.27 4.59 3.86 8.23 6.74 8.23 2.97 0 6.73-3.92 6.73-8.75zM4.56 58.57h14.91c-.86-3.57-3.94-6.22-7.46-6.22S5.42 55 4.56 58.57z" fill="#9ca3af" opacity="1" data-original="#000000" class=""></path></g></svg>