<svg xmlns="http://www.w3.org/2000/svg" version="1.1" xmlns:xlink="http://www.w3.org/1999/xlink" width="512" height="512" x="0" y="0" viewBox="0 0 66 66" style="enable-background:new 0 0 512 512" xml:space="preserve" class=""><g><path d="M59 39.4c.6 0 1-.5 1-1v-3c.4-.2.7-.5.9-.9l3.7-7.9c.5-1.1.6-2.4.1-3.5-.5-1.4-1.6-2.8-3.1-3.6.5-.6.9-1.4.9-2.3 0-1.6-1.1-2.9-2.5-3.3v-2.2h3.4c.5 0 1-.4 1-1V2.4c0-.6-.5-1-1-1h-8.7c-.5 0-1 .5-1 1v3.7L7 24.1h-.6c-2.2 0-4 1.8-4 4 0 2.1 1.6 3.8 3.6 4v7.3h-.2c-2.7 0-4.8 2.2-4.8 4.8C1 46.9 3.2 49 5.8 49h6.3v1.9h-3c-3.8 0-6.8 3.1-6.8 6.8 0 3.8 3.1 6.8 6.8 6.8H37c3.8 0 6.8-3.1 6.8-6.8 0-3.8-3-6.8-6.8-6.8h-3V49h5.7c3 0 5.5-2.4 5.5-5.4V31.3c0-.2-.1-.4-.2-.6l-5.1-6.3L53.7 11c.1.4.5.7.9.7H58v2.2c-1.4.4-2.5 1.8-2.5 3.3 0 .9.3 1.7.8 2.3-1.4.8-2.5 2.3-3.1 3.6-.4 1.1-.4 2.4.1 3.5l3.7 7.9c.2.4.5.6.8.8v2.2c-1.5.4-2.6 1.8-2.6 3.5 0 2 1.6 3.6 3.6 3.6s3.6-1.6 3.6-3.6c0-.6-.4-1-1-1-.5 0-1 .4-1 1 0 .9-.7 1.6-1.6 1.6s-1.6-.7-1.6-1.6c.2-.9.9-1.6 1.8-1.6zM10.7 60.7c-1.6 0-2.9-1.3-2.9-2.9s1.3-2.9 2.9-2.9 2.9 1.3 2.9 2.9c0 1.5-1.3 2.9-2.9 2.9zm8.2 0c-1.6 0-2.9-1.3-2.9-2.9s1.3-2.9 2.9-2.9 2.9 1.3 2.9 2.9c0 1.5-1.3 2.9-2.9 2.9zm8.3 0c-1.6 0-2.9-1.3-2.9-2.9s1.3-2.9 2.9-2.9 2.9 1.3 2.9 2.9c0 1.5-1.3 2.9-2.9 2.9zm4.8-9.8H14.1V49H32zm-7.7-11.5V24.3h3.3v15.1zm11.1 15.4c1.6 0 2.9 1.3 2.9 2.9s-1.3 2.9-2.9 2.9-2.9-1.3-2.9-2.9 1.3-2.9 2.9-2.9zm7.7-23.2v7.8H29.6V24.3h7.5c.8.9 6.4 7.8 6 7.3zm-4.6-8.8-.1-.2c-.2-.2-.5-.4-.8-.4H23.3c-.6 0-1 .5-1 1v16.1H14V32c.9-.1 1.8-.5 2.4-1.2.8-.8 1.2-1.8 1.2-2.8 0-2.2-1.8-4-4-4h-1.1l41-15.8zm19-5.5c0-.8.7-1.5 1.5-1.5s1.5.7 1.5 1.5-.7 1.5-1.5 1.5-1.5-.7-1.5-1.5z" fill="#000000" opacity="1" data-original="#000000"></path></g></svg>