<svg xmlns="http://www.w3.org/2000/svg" version="1.1" xmlns:xlink="http://www.w3.org/1999/xlink" width="512" height="512" x="0" y="0" viewBox="0 0 500 500" style="enable-background:new 0 0 512 512" xml:space="preserve" class=""><g><path fill-rule="evenodd" d="M139.572 386.21v12.331c0 4.456-1.278 8.635-3.341 11.782l.019.013c-2.631 4.008-6.545 6.493-11.108 6.493h-52.85c-4.544 0-8.448-2.485-11.08-6.493-2.068-3.149-3.35-7.332-3.35-11.794V122.95c0-5.694 3.179-10.646 8.302-14.036 4.272-2.827 10.025-4.582 16.227-4.582h77.978c.518 0 .94-.422.94-.94v-3.267c0-.414.256-.766.65-.894l17.567-5.708a.916.916 0 0 0 .618-.654 71.778 71.778 0 0 1 7.372-17.779.914.914 0 0 0 .025-.9l-8.39-16.466a.928.928 0 0 1 .173-1.092l15.924-15.924a.928.928 0 0 1 1.092-.173l16.464 8.389c.293.15.616.14.9-.025a71.83 71.83 0 0 1 17.781-7.372.918.918 0 0 0 .654-.619l5.707-17.566a.928.928 0 0 1 .894-.65h22.52c.414 0 .766.256.894.65l5.707 17.566a.92.92 0 0 0 .654.619 71.764 71.764 0 0 1 17.779 7.373.914.914 0 0 0 .9.025l16.466-8.389a.928.928 0 0 1 1.092.173l15.924 15.924a.928.928 0 0 1 .173 1.092l-8.39 16.466a.914.914 0 0 0 .025.9 71.87 71.87 0 0 1 7.372 17.779.916.916 0 0 0 .618.654l17.567 5.708c.394.128.65.48.65.894v3.267c0 .518.422.94.94.94h77.978c6.202 0 11.955 1.755 16.227 4.582 5.122 3.39 8.302 8.341 8.302 14.036v275.592c0 4.456-1.279 8.635-3.342 11.782l.019.013c-2.631 4.008-6.545 6.493-11.108 6.493h-52.85c-4.563 0-8.477-2.485-11.108-6.493-.131-.2-.25-.404-.358-.612l-.026-.047c-1.824-3.062-2.938-6.978-2.938-11.136V386.21c0-.518.422-.94.94-.94h11.075c.371 0 .741-.009 1.108-.026.266-.012.5.075.693.259s.291.413.291.68v12.358c0 1.515.29 2.806.77 3.722.021.04.042.073.068.11.058.081.115.164.17.248.003.004 0 .009-.008.012a.88.88 0 0 0-.09.052l-.055.036h51.598l.054-.085c-.014-.005-.021-.01-.017-.016l.019.013.008-.013c.605-.921.98-2.355.98-4.08V122.95c0-.666-.753-1.497-1.965-2.299-2.062-1.365-5.048-2.212-8.457-2.212h-77.978a.941.941 0 0 0-.94.94v3.267a.928.928 0 0 1-.65.894l-17.565 5.707a.92.92 0 0 0-.619.654 71.81 71.81 0 0 1-7.373 17.78.914.914 0 0 0-.025.9l8.39 16.466a.928.928 0 0 1-.173 1.092l-15.924 15.924a.928.928 0 0 1-1.092.173l-16.466-8.39a.914.914 0 0 0-.9.025 71.822 71.822 0 0 1-17.778 7.371.918.918 0 0 0-.654.618l-5.708 17.567a.928.928 0 0 1-.894.65h-22.52a.928.928 0 0 1-.894-.65l-5.707-17.565a.916.916 0 0 0-.654-.618 71.78 71.78 0 0 1-17.779-7.373.914.914 0 0 0-.9-.025l-16.466 8.39a.928.928 0 0 1-1.092-.173l-15.924-15.924a.928.928 0 0 1-.173-1.092l8.39-16.466a.914.914 0 0 0-.025-.9 71.854 71.854 0 0 1-7.372-17.779.916.916 0 0 0-.618-.654l-17.567-5.708a.928.928 0 0 1-.65-.894v-3.267a.941.941 0 0 0-.94-.94H82.39c-3.409 0-6.395.847-8.457 2.212-1.212.802-1.965 1.633-1.965 2.299v275.592c0 1.725.375 3.159.98 4.08.003.005-.001.009-.009.013a.83.83 0 0 0-.091.053l-.054.035h51.626l.054-.085c-.014-.005-.021-.01-.017-.016l.019.013.008-.013c.605-.921.98-2.355.98-4.08V385.96c0-.282.111-.525.324-.71a.911.911 0 0 1 .749-.22c1.11.159 2.244.241 3.396.241h8.697a.941.941 0 0 1 .942.939zm-17.819-14.95h258.87c3.391 0 6.615-1.358 9.01-3.753s3.753-5.619 3.753-9.01V236.563c0-3.391-1.358-6.615-3.753-9.009a12.726 12.726 0 0 0-9.009-3.753h-258.87c-3.391 0-6.614 1.358-9.009 3.753s-3.753 5.618-3.753 9.009v121.934c0 3.391 1.358 6.615 3.753 9.01a12.72 12.72 0 0 0 9.008 3.753zm245.304-27.07h-6.263a5.272 5.272 0 1 0 0 10.544h6.263a5.272 5.272 0 1 0 0-10.544zm-56.369 0h-6.263a5.272 5.272 0 1 0 0 10.544h6.263a5.272 5.272 0 1 0 0-10.544zm-56.369 0h-6.263a5.272 5.272 0 1 0 0 10.544h6.263a5.272 5.272 0 1 0 0-10.544zm-51.096 5.273a5.272 5.272 0 0 0-5.272-5.272h-6.263a5.272 5.272 0 1 0 0 10.544h6.263a5.272 5.272 0 0 0 5.272-5.272zm-56.368 0a5.272 5.272 0 0 0-5.272-5.272h-6.263a5.272 5.272 0 1 0 0 10.544h6.263a5.272 5.272 0 0 0 5.272-5.272zm221.416-30.388a6.963 6.963 0 0 0 2.05-4.937v-15.945c0-1.86-.736-3.622-2.05-4.937a6.963 6.963 0 0 0-4.937-2.05h-15.945c-1.859 0-3.623.736-4.937 2.05s-2.05 3.077-2.05 4.937v15.945c0 1.86.736 3.623 2.05 4.937s3.077 2.05 4.937 2.05h15.945c1.86 0 3.623-.736 4.937-2.05zm-46.822-69.754c0-1.86-.736-3.622-2.05-4.937a6.961 6.961 0 0 0-4.937-2.05h-15.945c-1.859 0-3.622.736-4.936 2.05s-2.05 3.078-2.05 4.937v15.945c0 1.859.736 3.623 2.05 4.937s3.077 2.05 4.936 2.05h15.945c1.86 0 3.623-.736 4.937-2.05s2.05-3.077 2.05-4.937zm46.822 20.882a6.961 6.961 0 0 0 2.05-4.937v-15.945c0-1.86-.736-3.622-2.05-4.937a6.961 6.961 0 0 0-4.937-2.05h-15.945c-1.86 0-3.623.736-4.937 2.05s-2.05 3.077-2.05 4.937v15.945c0 1.859.736 3.623 2.05 4.937s3.078 2.05 4.937 2.05h15.945c1.86 0 3.623-.736 4.937-2.05zm-46.822 27.99c0-1.86-.736-3.622-2.05-4.937a6.963 6.963 0 0 0-4.937-2.05h-15.945c-1.859 0-3.622.736-4.936 2.05s-2.05 3.077-2.05 4.937v15.945c0 1.859.736 3.623 2.05 4.937s3.077 2.05 4.936 2.05h15.945c1.859 0 3.623-.736 4.937-2.05s2.05-3.078 2.05-4.937zm-56.463-38.266c0-4.679-1.86-9.121-5.166-12.427s-7.748-5.165-12.427-5.165h-97.745c-4.679 0-9.121 1.859-12.427 5.165s-5.166 7.748-5.166 12.427v43.606c0 4.68 1.859 9.121 5.166 12.427s7.747 5.165 12.427 5.165h97.745c4.679 0 9.121-1.859 12.427-5.165s5.166-7.748 5.166-12.427zm-13.798 176.305c-24.524 0-44.405-19.881-44.405-44.405 0-1.863.115-3.699.337-5.501a.914.914 0 0 0-.228-.738.912.912 0 0 0-.705-.318H166.65a.941.941 0 0 0-.94.94v16.444c0 .414.256.766.65.894l16.889 5.488a.915.915 0 0 1 .618.653 69.245 69.245 0 0 0 7.091 17.101.915.915 0 0 1 .025.899l-8.066 15.831a.928.928 0 0 0 .173 1.092l15.312 15.312a.928.928 0 0 0 1.092.173l15.831-8.066a.914.914 0 0 1 .9.025 69.177 69.177 0 0 0 17.101 7.092.918.918 0 0 1 .654.618l5.487 16.887c.128.394.48.65.894.65h21.655a.928.928 0 0 0 .894-.65l5.488-16.89a.915.915 0 0 1 .653-.618 69.28 69.28 0 0 0 17.101-7.09.916.916 0 0 1 .9-.025l15.831 8.066a.928.928 0 0 0 1.092-.173l15.312-15.312a.928.928 0 0 0 .173-1.092l-8.066-15.831a.917.917 0 0 1 .025-.899 69.2 69.2 0 0 0 7.092-17.102.916.916 0 0 1 .618-.654l16.887-5.487a.928.928 0 0 0 .65-.894V386.21a.941.941 0 0 0-.94-.94h-39.538a.91.91 0 0 0-.705.318.907.907 0 0 0-.228.738c.223 1.802.337 3.638.337 5.501.001 24.524-19.879 44.405-44.404 44.405zM250 62.753c-26.86 0-48.634 21.774-48.634 48.633 0 26.86 21.774 48.634 48.634 48.634 26.859 0 48.633-21.774 48.633-48.634.001-26.86-21.773-48.633-48.633-48.633zm-24.148 53.379 12.512 14.656a7.298 7.298 0 0 0 10.863.257l27.892-29.708c2.763-2.937 2.622-7.557-.315-10.32s-7.557-2.622-10.32.315l-21.599 23.004c-.19.202-.431.303-.708.296s-.513-.119-.693-.329l-6.541-7.663a7.3 7.3 0 0 0-10.292-.801 7.303 7.303 0 0 0-.799 10.293zM124.638 402.723l-.109-.071-.041-.009.123.08zm-.109-.072.109.071h.504c.416.001-.364-.026-.613-.071zm-52.237.072h.503l.122-.08c-.182.049-1.05.08-.625.08zm354.912 0-.109-.071-.041-.009.123.08zm-.109-.072.109.071h.504c.416.001-.364-.026-.613-.071zm-51.733.072h.027l.123-.08-.041.009z" clip-rule="evenodd" fill="#000000" opacity="1" data-original="#000000"></path></g></svg>