<svg xmlns="http://www.w3.org/2000/svg" version="1.1" xmlns:xlink="http://www.w3.org/1999/xlink" width="512" height="512" x="0" y="0" viewBox="0 0 510 510" style="enable-background:new 0 0 512 512" xml:space="preserve" fill-rule="evenodd" class=""><g><path d="M183.487 258.63H97.936v-36.904c16.944-7.112 35.552-11.042 55.071-11.042 18.654 0 36.469 3.582 52.793 10.096l-12.612 5.402a16 16 0 0 0-9.701 14.708zm-144.98 9.767v69.31H11.448c2.746-25.789 12.394-49.517 27.059-69.31zm144.98 6.233v60.858H54.507v-79.715a136.228 136.228 0 0 1 27.429-22.071v40.928zm114.221 70.216v100.41c0 7.367-5.972 13.338-13.338 13.338H169.936c-7.366 0-13.337-5.971-13.337-13.338v-6.487a35.482 35.482 0 0 1 10.391-25.087 35.482 35.482 0 0 1 25.087-10.391h9.917c14.782 0 26.765-11.983 26.765-26.764v-31.681zm-68.949-16v-9.518a13.338 13.338 0 0 1 13.337-13.338h42.274a13.338 13.338 0 0 1 13.338 13.338v9.518zM408.27 428.17c-21.279 29.054-53.184 50.161-90.416 57.055a143.124 143.124 0 0 1-33.591-10.631h.107c16.203 0 29.338-13.135 29.338-29.338V319.328a29.338 29.338 0 0 0-29.338-29.338h-42.274a29.338 29.338 0 0 0-29.337 29.338v57.199c0 4.44-2.689 8.253-6.527 9.898a142.845 142.845 0 0 1-6.745-43.397V240.89l118.367-50.7 68.286 29.239v23.712c0 23.633-.938 40.709-3.673 50.416-.266.945-.683 1.973-1.061 2.82-.771-.619-1.684-1.41-2.419-2.21-2.575-2.805-5.439-6.73-8.666-11.784-14.903-23.394-40.938-17.742-56.839-8.346a8.001 8.001 0 0 0-2.821 10.952c15.208 25.786 42.564 54.039 62.051 81.09 11.768 16.336 20.796 32.004 20.796 46.432v7.659a8 8 0 0 0 8 8zm72.929-191.692c0-4.774 3.893-8.713 8.713-8.713 4.767 0 8.64 3.946 8.64 8.713v100.247c0 16.622-5.174 26.819-10.274 36.692-5.749 11.13-11.389 21.905-11.389 39.094v2.659h-70.381v-2.659c0-16.681-9.643-35.144-23.248-54.031-18.142-25.184-43.248-51.374-58.664-75.631 10.916-5.124 25.827-7.505 34.765 6.525l.003.003c6.168 9.664 11.42 15.723 15.652 18.578 4.458 3.007 8.372 3.165 11.638 1.618 3.022-1.43 5.899-4.879 7.83-10.847 3.27-10.106 4.656-28.956 4.656-55.585v-57.284c0-4.82 3.94-8.713 8.713-8.713 4.767 0 8.64 3.9 8.64 8.713v74.061c0 2.759 2.241 5 5 5 2.76 0 5-2.241 5-5v-89.525c0-4.766 3.947-8.64 8.713-8.64 4.759 0 8.64 3.881 8.64 8.64v96.746c0 2.76 2.241 5 5 5 2.76 0 5-2.24 5-5v-77.708c0-4.767 3.901-8.64 8.713-8.64 4.759 0 8.64 3.881 8.64 8.64v91.129c0 2.76 2.241 5 5 5 2.76 0 5-2.24 5-5zM75.407 118.462h155.275c2.941 0 5.362 2.456 5.362 5.436 0 2.932-2.431 5.362-5.362 5.362H75.407c-2.981 0-5.437-2.42-5.437-5.362 0-2.99 2.447-5.436 5.437-5.436zm50.137-76.122 4.466 34.126c.358 2.736 2.87 4.667 5.606 4.309s4.667-2.87 4.309-5.606L134.709 35.3c-.468-3.692 1.756-5.874 4.621-7.323 4.082-2.065 9.373-2.857 13.675-3.202 4.342.345 9.654 1.137 13.748 3.204 1.998 1.009 3.683 2.372 4.365 4.353.249.793.344 1.676.246 2.66-.02.205-.028.409-.024.611l-5.177 39.566a5.002 5.002 0 0 0 4.31 5.606 5.002 5.002 0 0 0 5.606-4.309l4.461-34.097c25.404 10.681 43.278 35.83 43.278 65.204 0 .295-.002.591-.005.889h-26.521V70.45c0-2.759-2.241-5-5-5-2.76 0-5 2.241-5 5v38.012h-68.57V70.45c0-2.759-2.24-5-5-5-2.759 0-5 2.241-5 5v38.012H82.276a66.2 66.2 0 0 1-.006-.889c0-29.4 17.843-54.569 43.274-65.233zm-43.257 99.92h141.44c-6.384 33.203-35.704 58.424-70.72 58.424s-64.336-25.221-70.72-58.424z" fill="#000000" opacity="1" data-original="#000000"></path></g></svg>