<svg xmlns="http://www.w3.org/2000/svg" version="1.1" xmlns:xlink="http://www.w3.org/1999/xlink" width="512" height="512" x="0" y="0" viewBox="0 0 512 512" style="enable-background:new 0 0 512 512" xml:space="preserve" class=""><g><path fill-rule="evenodd" d="M133.266 278.819c-59.978 0-108.59 48.613-108.59 108.591S73.288 496 133.266 496c59.979 0 108.591-48.613 108.591-108.59 0-59.978-48.613-108.591-108.591-108.591zm43.313 86.47 10.695 39.914a4.012 4.012 0 0 1-2.828 4.899l-46.834 12.549a4.011 4.011 0 0 1-4.899-2.829l-10.695-39.914a4.012 4.012 0 0 1 2.828-4.899l15.7-4.207 3.404 12.705a7.99 7.99 0 1 0 15.437-4.125l-3.407-12.716 15.7-4.207a4.012 4.012 0 0 1 4.899 2.83zm-66.927-46.986 10.521-2.819 2.758 10.292a7.99 7.99 0 0 0 15.437-4.125l-2.76-10.303 10.521-2.819a4.01 4.01 0 0 1 4.899 2.828l8.272 30.871a4.012 4.012 0 0 1-2.828 4.899l-36.477 9.774a4.012 4.012 0 0 1-4.899-2.828l-8.272-30.871a4.01 4.01 0 0 1 2.828-4.899zm94.467 125.338-7.347-2.874-64.734 17.345c-2.263 5.411-7.606 9.213-13.838 9.213-8.281 0-14.993-6.713-14.993-14.993 0-3.074.926-5.931 2.513-8.31l-24.575-94.949H62.5a8 8 0 0 1 0-16l24.811.025a7.978 7.978 0 0 1 7.719 5.975l25.479 98.443a14.967 14.967 0 0 1 8.827 4.778l65.834-17.635a7.947 7.947 0 0 1 4.968.277l9.794 3.831a7.984 7.984 0 1 1-5.813 14.874zm265.535-75.534a91.023 91.023 0 0 0-11.052-26.661l7.69-17.314-20.414-20.413-17.32 7.693a91.043 91.043 0 0 0-26.654-11.05l-6.803-17.675h-28.868l-6.804 17.675a91.015 91.015 0 0 0-26.654 11.05l-17.32-7.693-20.413 20.414 7.691 17.318a91.03 91.03 0 0 0-11.051 26.656l-17.673 6.802v28.869l17.67 6.802a91.05 91.05 0 0 0 11.052 26.661l-7.69 17.315 20.414 20.413 17.32-7.693a91.031 91.031 0 0 0 26.654 11.05L366.233 496h28.869l6.801-17.67a91.023 91.023 0 0 0 26.661-11.052l17.315 7.69 20.413-20.414-7.693-17.32a91.043 91.043 0 0 0 11.05-26.654l17.675-6.803v-28.869zm-88.987 71.582c-27.808 0-50.346-22.538-50.346-50.346s22.538-50.347 50.346-50.347 50.346 22.539 50.346 50.347-22.538 50.346-50.346 50.346zm2.442-422.935v48.794a4.354 4.354 0 0 0 4.346 4.346h48.794a8.72 8.72 0 0 0-1.792-2.546l-48.802-48.801a8.687 8.687 0 0 0-2.546-1.793zM280.836 447.125h-38.201c9.702-17.731 15.221-38.078 15.221-59.715a124.51 124.51 0 0 0-5.308-36.064h27.577a107.79 107.79 0 0 0-1.655 4.703l-20.459 7.875v50.839l20.456 7.873a107.25 107.25 0 0 0 6.395 15.426zM154.998 230.158l12.063 12.063c3.385 3.385 8.937 3.05 11.912-.671l17.175-21.233a8 8 0 1 0-12.437-10.062l-11.623 14.368-5.778-5.778a8 8 0 0 0-11.312 11.313zm0-94.523 12.063 12.062c3.385 3.385 8.937 3.05 11.912-.671l17.175-21.233a8 8 0 0 0-12.437-10.063l-11.623 14.37-5.778-5.778a8 8 0 0 0-11.312 11.313zm232.457-49.743c-11.224 0-20.345-9.121-20.345-20.345V16H113.059c-4.788 0-8.692 3.905-8.692 8.692v241.504a124.914 124.914 0 0 1 28.898-3.376c50.221 0 93.496 29.719 113.215 72.526h36.036l-6.555-14.76 15.034-15.035h-45.283a8 8 0 0 1 0-16h61.283l4.915-4.915 11.065 4.915h17.768a106.272 106.272 0 0 1 6.629-2.404l7.876-20.461h50.838l7.875 20.461a107.146 107.146 0 0 1 15.418 6.393l7.623-3.386V85.892zM209.989 253.439c0 3.951-3.232 7.183-7.183 7.183h-55.027c-3.951 0-7.183-3.232-7.183-7.183v-55.027c0-3.951 3.232-7.183 7.183-7.183h55.027c3.951 0 7.183 3.232 7.183 7.183zm0-94.524c0 3.95-3.232 7.183-7.183 7.183h-55.027c-3.951 0-7.183-3.232-7.183-7.183v-55.027c0-3.951 3.232-7.183 7.183-7.183h55.027c3.951 0 7.183 3.232 7.183 7.183zM398.9 256.823H245.713a8 8 0 0 1 0-16H398.9a8 8 0 0 1 0 16zm0-45.795H245.713a8 8 0 0 1 0-16H398.9a8 8 0 0 1 0 16zm0-48.729H245.713a8 8 0 0 1 0-16H398.9a8 8 0 0 1 0 16zm0-45.794H245.713a8 8 0 0 1 0-16H398.9a8 8 0 0 1 0 16z" clip-rule="evenodd" fill="#000000" opacity="1" data-original="#000000" class=""></path></g></svg>