<svg xmlns="http://www.w3.org/2000/svg" version="1.1" xmlns:xlink="http://www.w3.org/1999/xlink" width="512" height="512" x="0" y="0" viewBox="0 0 497.271 497.271" style="enable-background:new 0 0 512 512" xml:space="preserve" class=""><g><path d="m440.626 441.511.626-183.201 56.019-56.408-42.084-72.822-12.231-.022.043 61.067-59.686.021V129.08l-12.231-.044-42.02 72.845 54.51 54.876h-.712l-.367 116.18-29.099-34.491-54.143-12.037v78.453H272.59v-84.363l-15.747-3.452-19.78-19.845-29.207 31.709.086.691H183.33l.065-.691-29.293-31.709-19.759 19.845-15.639 3.452v84.363H92.043v-78.453L37.9 338.446 0 474.32h468.086l-27.718-32.852z" fill="#000000" opacity="1" data-original="#000000" class=""></path><path d="M195.755 299.532c44.479 0 80.89-61.994 89.842-117.043H105.869c8.823 55.48 45.407 117.043 89.886 117.043zM317.155 147.479h-21.032C292.629 94.2 281.628 22.951 195.625 22.951c-86.067 0-97.004 71.248-100.585 124.528H73.017v15.445h244.138v-15.445z" fill="#000000" opacity="1" data-original="#000000" class=""></path></g></svg>