<svg xmlns="http://www.w3.org/2000/svg" version="1.1" xmlns:xlink="http://www.w3.org/1999/xlink" width="512" height="512" x="0" y="0" viewBox="0 0 512 512" style="enable-background:new 0 0 512 512" xml:space="preserve" class=""><g><path fill-rule="evenodd" d="M130.22 48.95v82.37h175.87v-56.7c0-3.31 2.69-6 6-6h25.35V58.44c0-5.23-4.26-9.49-9.49-9.49zM36.34 189.43c4.9-3.62 10.95-5.77 17.49-5.77s12.59 2.15 17.49 5.76V164.4H36.34zm17.49 53.21c-6.54 0-12.59-2.15-17.49-5.77v25.02h34.98v-25.02a29.279 29.279 0 0 1-17.49 5.77zm0-11.99c9.64 0 17.49-7.85 17.49-17.49 0-9.65-7.85-17.49-17.49-17.49s-17.49 7.85-17.49 17.49 7.85 17.49 17.49 17.49zM193.9 356.6c0-13.15-10.69-23.85-23.84-23.85s-23.85 10.7-23.85 23.85 10.7 23.85 23.85 23.85c13.15-.01 23.84-10.71 23.84-23.85zm46.4-53.6a5.997 5.997 0 0 0-.76 7.56 82.54 82.54 0 0 1 12.22 29.45c.56 2.8 3.02 4.81 5.88 4.81h19.8v23.54h-19.8c-2.86 0-5.32 2.02-5.88 4.81-2.13 10.55-6.24 20.46-12.22 29.46a5.997 5.997 0 0 0 .76 7.56l14.01 14.01-16.64 16.64-14.01-14.01a6.009 6.009 0 0 0-7.57-.75 82.52 82.52 0 0 1-29.45 12.21c-2.8.57-4.81 3.03-4.81 5.88v19.8h-23.54v-19.8c0-2.86-2.01-5.32-4.81-5.88-10.55-2.13-20.46-6.24-29.46-12.21a6.009 6.009 0 0 0-7.56.75l-14.01 14.01-16.64-16.64 14.01-14.01a6.009 6.009 0 0 0 .75-7.56c-5.97-9-10.08-18.91-12.21-29.46a6.005 6.005 0 0 0-5.88-4.81H62.67v-23.54h19.81c2.86 0 5.32-2.01 5.88-4.81a82.52 82.52 0 0 1 12.21-29.45 5.996 5.996 0 0 0-.75-7.56l-14.01-14.01 16.64-16.64 14.01 14.01a6.01 6.01 0 0 0 7.56.76c9-5.97 18.91-10.08 29.46-12.21 2.8-.57 4.81-3.03 4.81-5.88v-19.8h23.54v19.8c0 2.85 2.01 5.31 4.81 5.88a82.52 82.52 0 0 1 29.45 12.21 6.011 6.011 0 0 0 7.57-.76l14.01-14.01 16.64 16.64zm-70.24-6.02c32.87 0 59.61 26.74 59.61 59.62 0 32.87-26.74 59.61-59.61 59.61s-59.61-26.74-59.61-59.61c0-32.88 26.74-59.62 59.61-59.62zm167.38 44.53c0 5.01-4.08 9.08-9.09 9.08h-38.91v-11.77c0-3.31-2.69-6-6-6h-21.02a94.407 94.407 0 0 0-10.26-24.73l14.88-14.87c1.12-1.12 1.76-2.65 1.76-4.24s-.64-3.11-1.76-4.24l-25.13-25.13a5.993 5.993 0 0 0-8.49 0l-14.87 14.87a93.838 93.838 0 0 0-24.72-10.25V243.2c0-3.31-2.69-6-6-6h-35.54c-3.31 0-6 2.69-6 6v21.03a94.153 94.153 0 0 0-16.07 5.71v-96.53c0-3.31-2.69-6-6-6-3.32 0-6 2.69-6 6v97.73l-11.53-11.53a5.981 5.981 0 0 0-8.48 0L83.32 274.5V152.41c0-5.01 4.07-9.08 9.08-9.08h198.25v155.13c0 3.31 2.69 6 6 6s6-2.69 6-6V143.32h25.7c5.01 0 9.09 4.08 9.09 9.08zm138.03-96.85v19.95h18.81v-19.95zm-31.96-15.31v50.56h19.99v-50.56zm-37.58-39.04H381.1v128.64h24.83l25.57-19.9v-88.84zM318.09 80.62h40.59c5.75 0 10.42 4.67 10.42 10.42v233.37c0 5.75-4.67 10.42-10.42 10.42h-9.24V152.41c0-11.62-9.46-21.08-21.09-21.08h-10.26zM86.8 83.97V64.44H36.28v19.54H86.8zm31.42 47.35V48.95h-9.94c-5.23 0-9.48 4.25-9.48 9.49v72.89h19.42z" clip-rule="evenodd" fill="#000000" opacity="1" data-original="#000000" class=""></path></g></svg>