<svg xmlns="http://www.w3.org/2000/svg" version="1.1" xmlns:xlink="http://www.w3.org/1999/xlink" width="512" height="512" x="0" y="0" viewBox="0 0 512 512" style="enable-background:new 0 0 512 512" xml:space="preserve" class=""><g><path d="M182.578 401.5h149.1v26.24H191.171zM410.517 68.6v63.516c.834-.028 1.667-.057 2.529-.057a82.634 82.634 0 0 1 23.682 3.449V51.905a20.6 20.6 0 0 0-20.549-20.549h-64.148V57.6h47.45a11.051 11.051 0 0 1 11.036 11zm-296 125.222.057.172.029.115 21.44 65.442V68.6a11.051 11.051 0 0 1 11.041-11h47.45V31.356h-64.149a20.6 20.6 0 0 0-20.549 20.549V182.07a52.035 52.035 0 0 1 3.535 8.22zM337.833 66.448h-129.1V25.78a5.1 5.1 0 0 1 5.087-5.087h39.087v-.316a20.377 20.377 0 0 1 40.754 0v.316h39.087a5.1 5.1 0 0 1 5.087 5.087zm-57.394-46.071a7.09 7.09 0 0 0-7.1-7.07h-.115a7.085 7.085 0 1 0 0 14.169h.115a7.1 7.1 0 0 0 7.1-7.099zM201.4 247.224h-35.38v35.351h35.38zm-35.38 106.052h35.38v-35.351h-35.38zm160.6-176.753a7.1 7.1 0 0 0-7.1-7.1h-92.538a7.1 7.1 0 1 0 0 14.2h92.543a7.114 7.114 0 0 0 7.099-7.1zm-99.642 42.449h85.1a7.1 7.1 0 0 0 0-14.2h-85.1a7.1 7.1 0 1 0 0 14.2zm86.364 127.205h-86.36a7.1 7.1 0 0 0 0 14.2h86.364a7.1 7.1 0 0 0 0-14.2zm0-70.7h-86.36a7.1 7.1 0 1 0 0 14.2h86.364a7.1 7.1 0 1 0 0-14.2zm0 35.35h-86.36a7.1 7.1 0 0 0 0 14.2h86.364a7.1 7.1 0 0 0 0-14.2zm-86.364-212.1a7.085 7.085 0 1 0 0 14.169h153.563a7.085 7.085 0 1 0 0-14.169zm97.487 148.5a7.115 7.115 0 0 0-7.1-7.1h-90.383a7.1 7.1 0 1 0 0 14.2h90.388a7.115 7.115 0 0 0 7.099-7.103zm26.469-106.052a7.1 7.1 0 0 0-7.1-7.1H226.982a7.1 7.1 0 1 0 0 14.2H343.84a7.114 7.114 0 0 0 7.098-7.103zM201.4 176.523h-35.38v35.351h35.38zm0-70.7h-35.38v35.35h35.38zm211.643 309.3c-21.181 0-40.466-2.615-54.549-6.84a72.989 72.989 0 0 1-12.617-5.03v29.631c0 2.673 6.381 5.95 16.67 9.054 12.818 3.851 30.665 6.236 50.5 6.236s37.65-2.385 50.468-6.236c10.318-3.1 16.67-6.381 16.67-9.054v-29.629a72.1 72.1 0 0 1-12.617 5.03c-14.055 4.225-33.34 6.84-54.522 6.84zm0-47.249c-21.181 0-40.466-2.615-54.549-6.84a75.427 75.427 0 0 1-12.617-5v29.6c0 2.673 6.381 5.95 16.67 9.054 12.818 3.851 30.665 6.236 50.5 6.236s37.65-2.385 50.468-6.236c10.318-3.1 16.67-6.381 16.67-9.054v-29.6a74.476 74.476 0 0 1-12.617 5c-14.055 4.227-33.34 6.842-54.522 6.842zm0-45.611c-21.181 0-40.466-2.615-54.549-6.869a73.023 73.023 0 0 1-12.617-5v28.022c0 2.673 6.381 5.921 16.67 9.025 12.818 3.851 30.665 6.265 50.5 6.265s37.65-2.414 50.468-6.265c10.318-3.1 16.67-6.352 16.67-9.025V310.4a72.131 72.131 0 0 1-12.617 5c-14.055 4.25-33.34 6.865-54.522 6.865zm63-33.281a61.534 61.534 0 0 0-16.008-6.208 82.785 82.785 0 0 1-93.981 0c-6.725 1.753-12.215 3.88-16.009 6.208-2.672 1.638-4.167 2.96-4.167 3.793 0 2.673 6.381 5.921 16.67 9.025 12.818 3.88 30.665 6.265 50.5 6.265s37.65-2.385 50.468-6.265c10.318-3.1 16.67-6.352 16.67-9.025-.002-.831-1.497-2.153-4.141-3.791zm-111.424-25.836a68.483 68.483 0 1 1 48.427 20.061 68.223 68.223 0 0 1-48.427-20.061zm24.027-65.7a24.432 24.432 0 0 0 24.4 24.4 10.069 10.069 0 0 1 7.214 2.989 10.206 10.206 0 1 1-16.842 10.634 7.1 7.1 0 0 0-13.364 4.771 24.663 24.663 0 0 0 8.967 11.76 25.037 25.037 0 0 0 6.926 3.391v7.009a7.1 7.1 0 0 0 14.2 0v-7.013a24.394 24.394 0 0 0-7.1-47.737 10.205 10.205 0 0 1-10.2-10.2 10.2 10.2 0 0 1 19.8-3.449 7.1 7.1 0 1 0 13.364-4.771 24.659 24.659 0 0 0-15.865-15.146v-7.012a7.1 7.1 0 0 0-14.2 0v7.012a24.435 24.435 0 0 0-17.3 23.366zM180.135 439.727a6.855 6.855 0 0 1 .287 3.219l-9.34 63a7.052 7.052 0 0 1-8.019 5.978 6.928 6.928 0 0 1-4.282-2.3l-44.519-44.979a7.062 7.062 0 0 1-1.724-2.816L32.266 216.817a35.811 35.811 0 0 1 22.619-44.979l.086-.028a35.8 35.8 0 0 1 44.892 22.906l1.207 3.621v.057zm-15.664-2.357L89.8 209.488l-40.663 13.336L123.8 450.705z" fill="#000000" opacity="1" data-original="#000000" class=""></path></g></svg>