<svg xmlns="http://www.w3.org/2000/svg" version="1.1" xmlns:xlink="http://www.w3.org/1999/xlink" width="512" height="512" x="0" y="0" viewBox="0 0 24 24" style="enable-background:new 0 0 512 512" xml:space="preserve" class=""><g><path d="M17 0c-3.86 0-7 3.141-7 7s3.14 7 7 7 7-3.141 7-7-3.14-7-7-7zm-.38 6.25h.76a2.122 2.122 0 0 1 .37 4.212v.787a.75.75 0 0 1-1.5 0V10.5h-1a.75.75 0 0 1 0-1.5h2.13a.62.62 0 0 0 .62-.62.623.623 0 0 0-.62-.63h-.76a2.122 2.122 0 0 1-.37-4.212V2.75a.75.75 0 0 1 1.5 0v.75h1a.75.75 0 0 1 0 1.5h-2.13a.62.62 0 0 0-.62.62c0 .352.278.63.62.63zM.491 12.002a.5.5 0 0 0-.491.5V21.5a.5.5 0 0 0 .5.5h2.122a.5.5 0 0 0 .481-.363l2.213-7.798a1 1 0 0 0-.62-1.213c-.906-.33-2.296-.656-4.205-.624zM22 17.5c-2 0-6 2.531-8 2.531S9.75 18.5 9.75 18.5s2.694.5 4.25.5 2-.531 2-1.25c0-1.75-2.972-2.022-4.476-2.251-1.476-.822-2.243-1.472-4.688-1.679a2.41 2.41 0 0 1-.076.426l-2.009 7.08C7.026 22.361 10.944 24 13 24c3 0 11-4 11-5s-1-1.5-2-1.5z" fill="#000000" opacity="1" data-original="#000000"></path></g></svg>