<svg xmlns="http://www.w3.org/2000/svg" version="1.1" xmlns:xlink="http://www.w3.org/1999/xlink" width="512" height="512" x="0" y="0" viewBox="0 0 512 512" style="enable-background:new 0 0 512 512" xml:space="preserve" class=""><g><path fill-rule="evenodd" d="M80.28 82.86h85.07l33.14 45.2a5.993 5.993 0 0 0 8.38 1.29 5.987 5.987 0 0 0 1.3-8.38l-34.94-47.66a6.006 6.006 0 0 0-4.84-2.45H80.28C77.5 57.64 65.74 47.68 51.71 47.68c-16.09 0-29.18 13.09-29.18 29.19s13.09 29.19 29.18 29.19c14.03-.01 25.79-9.97 28.57-23.2zm92.94 356.4 34.94-47.65a5.999 5.999 0 0 0-1.3-8.39 5.994 5.994 0 0 0-8.38 1.29l-33.14 45.2H80.28c-2.78-13.23-14.53-23.19-28.56-23.19-16.09 0-29.18 13.09-29.18 29.19s13.09 29.19 29.18 29.19c14.03 0 25.78-9.96 28.56-23.19h88.11c1.91.01 3.7-.9 4.83-2.45zM51.71 418.53c9.47 0 17.18 7.71 17.18 17.19s-7.71 17.19-17.18 17.19-17.18-7.71-17.18-17.19c.01-9.48 7.72-17.19 17.18-17.19zm215.48-30.47c0-3.32-2.68-6-6-6-3.31 0-6 2.69-6 6v49.82c-13.22 2.77-23.18 14.52-23.18 28.56 0 16.1 13.09 29.19 29.18 29.19s29.18-13.09 29.18-29.19c0-14.04-9.96-25.79-23.18-28.56zm-5.99 61.2c9.47 0 17.17 7.71 17.17 17.19s-7.7 17.19-17.18 17.19c-9.47 0-17.18-7.71-17.18-17.19s7.72-17.19 17.19-17.19zm63.88-341.76v36.73h15.93c17.87 0 32.41 14.54 32.41 32.42v159.28c0 17.87-14.54 32.42-32.41 32.42h-15.93v48.39c0 9.58 4.32 19.12 11.56 25.5 5.82 5.13 12.83 7.48 19.73 6.61 17.5-2.21 27.09-12.41 28.53-30.34-6.39-3.57-13.01-9.24-19-18.14a6.002 6.002 0 0 1 9.96-6.7c7.57 11.25 16.98 17.45 27.95 18.42 13.78 1.22 25.91-6.12 29.33-9.66 3.12-3.22 13.17-14.82 11.72-28.9-1.02-9.96-7.76-19.25-20.04-27.59a6.01 6.01 0 0 1-1.59-8.34 6 6 0 0 1 8.34-1.58c8.77 5.96 15.29 12.51 19.54 19.57 9.97-4.05 20.71-21.13 21.56-32.76 1.39-19.01-2.66-31.79-13.47-42.02-2.6.87-5.28 1.57-8.02 2.05-.35.07-.71.09-1.05.09-2.86 0-5.39-2.05-5.9-4.96-.58-3.26 1.6-6.37 4.86-6.95 13.72-2.42 25.53-11.13 33.26-24.5 8.71-15.08 10.78-33.67 5.39-48.52-6.72-18.5-31.56-44.43-69.64-35.28-3.22.78-6.46-1.21-7.24-4.43a6.012 6.012 0 0 1 4.43-7.24c13.92-3.34 25.95-2.54 35.81.05 1.21-13.93-4.16-27.44-14.88-36.83-12.06-10.57-28.98-14.31-45.28-10.01-3.2.85-6.49-1.06-7.33-4.27a5.984 5.984 0 0 1 4.27-7.33 64.625 64.625 0 0 1 15.75-2.14c-6.28-15.17-19.51-24.87-36.06-25.92-10.38-.65-20.51 3.13-28.51 10.64-8.89 8.33-13.98 20.09-13.98 32.24zm49.73 254.75c11.24.18 21.94 5.72 31.79 16.46 2.24 2.44 2.07 6.24-.37 8.48a5.967 5.967 0 0 1-4.05 1.58c-1.63 0-3.24-.65-4.43-1.94-7.64-8.33-15.21-12.45-23.14-12.57a6.006 6.006 0 0 1-5.9-6.1c.07-3.32 2.78-5.96 6.1-5.91zm17.73-218.73c3.29.41 5.62 3.41 5.2 6.7-2.78 22.03 6.93 34 30.57 37.66 3.28.51 5.52 3.57 5.01 6.85a6 6 0 0 1-6.85 5.01c-30.21-4.69-44.26-22.33-40.63-51.02.4-3.28 3.4-5.62 6.7-5.2zm12.65 156.95c-9.09-29.19.57-49.58 27.92-58.95 3.14-1.07 6.55.6 7.62 3.73a5.986 5.986 0 0 1-3.73 7.62c-21 7.19-27.46 21.19-20.35 44.04.98 3.16-.79 6.53-3.95 7.51-.59.18-1.19.27-1.79.27-2.54 0-4.91-1.65-5.72-4.22zM261.2 130.52c3.32 0 6-2.69 6-6V74.7c13.22-2.78 23.18-14.53 23.18-28.57 0-16.09-13.09-29.19-29.18-29.19s-29.18 13.09-29.18 29.19c0 14.04 9.96 25.79 23.18 28.57v49.81a5.994 5.994 0 0 0 6 6.01zm0-67.2c-9.47 0-17.18-7.71-17.18-17.19s7.71-17.19 17.18-17.19c9.48 0 17.18 7.71 17.18 17.19s-7.7 17.19-17.18 17.19zm-17.03 117.1 51.8 145.16a6.007 6.007 0 0 1-3.63 7.67c-.67.24-1.35.35-2.02.35-2.47 0-4.78-1.53-5.65-3.98l-16.86-47.24h-58.58l-16.86 47.24c-1.11 3.12-4.55 4.74-7.67 3.63s-4.74-4.55-3.63-7.67l51.8-145.16a5.988 5.988 0 0 1 5.65-3.98c2.53 0 4.8 1.6 5.65 3.98zm-83.19-3.77c0-11.26 9.16-20.42 20.42-20.42h159.61c11.25 0 20.41 9.16 20.41 20.42v159.28c0 11.26-9.16 20.42-20.41 20.42H181.4c-11.26 0-20.42-9.16-20.42-20.42zm168.7 153.88V182.05c0-3.32 2.69-6 6-6 3.32 0 6 2.68 6 6v148.47c0 3.31-2.68 6-6 6-3.31 0-6-2.68-6-5.99zm-91.17-130.24-25.01 70.09h50.02zM102.19 320.15H78.43c-2.77-13.23-14.52-23.19-28.56-23.19-16.09 0-29.18 13.09-29.18 29.19s13.09 29.19 29.18 29.19c14.04 0 25.79-9.96 28.56-23.19h26.28c1.6 0 3.13-.64 4.26-1.78L137 302.06a5.99 5.99 0 0 0-.05-8.48 5.981 5.981 0 0 0-8.48.04zm-35.14 6c0 9.48-7.7 17.19-17.18 17.19-9.47 0-17.18-7.71-17.18-17.19s7.71-17.19 17.18-17.19c9.48.01 17.18 7.72 17.18 17.19zm64.42-75.86H78.43c-2.77-13.23-14.52-23.19-28.56-23.19-16.09 0-29.18 13.1-29.18 29.19 0 16.1 13.09 29.19 29.18 29.19 14.04 0 25.79-9.96 28.56-23.19h53.04c3.31 0 6-2.69 6-6-.01-3.31-2.7-6-6-6zm-64.42 6c0 9.48-7.7 17.19-17.18 17.19-9.47 0-17.18-7.71-17.18-17.19s7.71-17.19 17.18-17.19c9.48 0 17.18 7.71 17.18 17.19zm41.91-74.09a5.993 5.993 0 0 0-4.26-1.78H78.43c-2.77-13.23-14.52-23.19-28.56-23.19-16.09 0-29.18 13.09-29.18 29.19s13.09 29.19 29.18 29.19c14.04 0 25.79-9.97 28.56-23.19h23.77l26.27 26.53a6 6 0 0 0 4.26 1.78c1.53 0 3.05-.58 4.22-1.74a6.002 6.002 0 0 0 .05-8.49zm-41.91 4.23c0 9.48-7.7 17.19-17.18 17.19-9.47 0-17.18-7.71-17.18-17.19s7.71-17.19 17.18-17.19c9.48 0 17.18 7.71 17.18 17.19zM68.9 76.86c0 9.48-7.71 17.19-17.18 17.19s-17.18-7.71-17.18-17.19 7.71-17.19 17.18-17.19c9.47.01 17.18 7.72 17.18 17.19z" clip-rule="evenodd" fill="#000000" opacity="1" data-original="#000000" class=""></path></g></svg>