<svg xmlns="http://www.w3.org/2000/svg" version="1.1" xmlns:xlink="http://www.w3.org/1999/xlink" width="512" height="512" x="0" y="0" viewBox="0 0 64 64" style="enable-background:new 0 0 512 512" xml:space="preserve" class=""><g><g data-name="Fast Charging"><path d="m47.91 31.41-4 9A1 1 0 0 1 43 41a1.492 1.492 0 0 1-.21-.02A1 1 0 0 1 42 40v-6h-3a1 1 0 0 1-.91-1.41l4-9a.991.991 0 0 1 1.12-.57A1 1 0 0 1 44 24v6h3a1 1 0 0 1 .91 1.41Z" fill="#000000" opacity="1" data-original="#000000"></path><path d="M43 15H16a2.015 2.015 0 0 0-2 2 2.006 2.006 0 0 0 2 2 1 1 0 0 1 0 2h-6a2.015 2.015 0 0 0-2 2 2.006 2.006 0 0 0 2 2h15.96a1 1 0 0 1 1.03 1.32 17.222 17.222 0 0 0-.75 2.97 1.008 1.008 0 0 1-1.07.84 1.1 1.1 0 0 1-.41-.13H18a2.015 2.015 0 0 0-2 2 2.006 2.006 0 0 0 2 2h7.01c.05-.01.11-.02.17-.03a.983.983 0 0 1 1.07.8 17 17 0 0 0 .74 2.91 1.006 1.006 0 0 1-.34 1.14.984.984 0 0 1-.77.18H10a2.006 2.006 0 0 0-2 2 2.015 2.015 0 0 0 2 2h6a1 1 0 0 1 0 2 2.006 2.006 0 0 0-2 2 2.015 2.015 0 0 0 2 2h27a17 17 0 0 0 0-34Zm0 30a13 13 0 1 1 13-13 13.012 13.012 0 0 1-13 13Z" fill="#000000" opacity="1" data-original="#000000"></path><path d="M8 34a2 2 0 0 0 0-4H6a2 2 0 0 0 0 4Z" fill="#000000" opacity="1" data-original="#000000"></path></g></g></svg>