<svg xmlns="http://www.w3.org/2000/svg" version="1.1" xmlns:xlink="http://www.w3.org/1999/xlink" width="512" height="512" x="0" y="0" viewBox="0 0 508.531 508.531" style="enable-background:new 0 0 512 512" xml:space="preserve" class=""><g><path d="M295.998 373.76h-83.465c13.049 14.755 26.895 27.976 41.732 36.89 14.838-8.915 28.684-22.135 41.733-36.89z" fill="#000000" opacity="1" data-original="#000000"></path><path d="M254.266 444.53c-5.352-3.956-30.956-8.381-80.823-70.771h-67.971c56.485 96.777 144.513 131.862 148.794 134.771 4.702-3.195 92.49-38.305 148.793-134.771h-67.97c-49.87 62.394-75.749 67.02-80.823 70.771zM359.266 33.833 254.266 0l-105 33.833v69.927h210zM119.266 43.5l-60 19.333v40.927h60zM449.266 62.833l-60-19.333v60.26h60zM254.266 208.76c-8.271 0-15 6.729-15 15v15h30v-15c0-8.272-6.729-15-15-15z" fill="#000000" opacity="1" data-original="#000000"></path><path d="M14.266 133.76v210h480v-210zm165 75h-30v90h-30v-90h-30v-30h90zm120 90h-30v-30h-30v30h-30v-75c2.27-59.632 87.752-59.586 90 0zm120.558-19.202-25.117 16.404-20.171-30.886-20.171 30.886-25.117-16.404 27.373-41.913-27.373-41.912 25.117-16.404 20.171 30.885 20.171-30.885 25.117 16.404-27.373 41.912z" fill="#000000" opacity="1" data-original="#000000"></path></g></svg>