<svg xmlns="http://www.w3.org/2000/svg" version="1.1" xmlns:xlink="http://www.w3.org/1999/xlink" width="512" height="512" x="0" y="0" viewBox="0 0 53 53" style="enable-background:new 0 0 512 512" xml:space="preserve" class=""><g><path d="M31.035 12.44v-.83c0-2.29-1.86-4.15-4.15-4.15h-.19c-.28 0-.5-.22-.5-.5 0-2.46-2-4.46-4.45-4.46-1.19 0-2.31.46-3.15 1.31-.84.84-1.31 1.96-1.31 3.15 0 .28-.22.5-.5.5h-.19c-2.29 0-4.15 1.86-4.15 4.15v.83c0 1.18.96 2.13 2.13 2.13h14.33c1.17 0 2.13-.95 2.13-2.13zM37.345 26.52c.49 0 .98.03 1.46.09V12.47a4.58 4.58 0 0 0-4.58-4.58h-2.45a6.136 6.136 0 0 1 1.26 3.72v.28h.77c.55 0 1 .45 1 1v13.883a13 13 0 0 1 2.54-.253z" fill="#000000" opacity="1" data-original="#000000"></path><path d="M4.675 12.48v33.44c0 2.52 2.05 4.58 4.58 4.58h21.18a13.076 13.076 0 0 1-4.029-4H9.675c-.55 0-1-.45-1-1V12.89c0-.55.45-1 1-1h.77v-.28c0-1.39.47-2.68 1.26-3.72h-2.44c-2.53 0-4.59 2.06-4.59 4.59z" fill="#000000" opacity="1" data-original="#000000"></path><path d="M28.803 22.429h-14.13a1 1 0 1 0 0 2h14.13a1 1 0 1 0 0-2zM25.888 20.043a1 1 0 1 0 0-2h-8.3a1 1 0 1 0 0 2zM23.365 41.499h-.24a1 1 0 1 0 0 2h.24a1 1 0 1 0 0-2zM23.652 37.618h-.527a1 1 0 1 0 0 2h.527c.28 0 .53-.115.712-.3.006-.433.032-.86.08-1.282a.981.981 0 0 0-.792-.418zM18.623 37.912l-2.66 2.662-.583-.582a1 1 0 1 0-1.414 1.414l1.29 1.29a1 1 0 0 0 1.413 0l3.368-3.37a1 1 0 1 0-1.414-1.414zM26.2 32.867a.973.973 0 0 0-.479-.138h-2.596a1 1 0 1 0 0 2h2.151a12.91 12.91 0 0 1 .923-1.862zM29.524 29.16a.992.992 0 0 0-.72-.313h-5.676a1 1 0 1 0 0 2h4.562c.556-.619 1.17-1.183 1.834-1.686zM20.037 29.14a1 1 0 0 0-1.414 0l-2.66 2.662-.583-.582a1 1 0 1 0-1.414 1.414l1.29 1.29a1 1 0 0 0 1.413 0l3.368-3.37a1 1 0 0 0 0-1.414zM33.175 39.79h.92l-.46-1.107z" fill="#000000" opacity="1" data-original="#000000"></path><path d="M48.325 39.5c0-6.05-4.92-10.98-10.98-10.98s-10.99 4.93-10.99 10.98c0 6.07 4.93 11 10.99 11s10.98-4.93 10.98-11zm-9.63-.989h1.622V36.89a1 1 0 1 1 2 0v1.621h1.62a1 1 0 1 1 0 2h-1.62v1.62a1 1 0 1 1-2 0v-1.62h-1.621a1 1 0 1 1 0-2zm-1.92 4.4a.921.921 0 0 1-1.49-.27l-.461-1.108h-2.378l-.454 1.09a.923.923 0 0 1-.35.411.93.93 0 0 1-1.147-.122l-.001-.001a.896.896 0 0 1-.167-1.007l2.284-5.391c.083-.188.199-.34.348-.46.178-.14.396-.212.631-.212.324 0 .542.072.717.21.152.122.269.274.349.453l2.286 5.4a.896.896 0 0 1-.166 1.007z" fill="#000000" opacity="1" data-original="#000000"></path></g></svg>