<svg xmlns="http://www.w3.org/2000/svg" version="1.1" xmlns:xlink="http://www.w3.org/1999/xlink" width="512" height="512" x="0" y="0" viewBox="0 0 512 512" style="enable-background:new 0 0 512 512" xml:space="preserve" class=""><g><path fill-rule="evenodd" d="M118.611 16.696a8.047 8.047 0 0 0-2.353 1.657L71.142 63.468a8.06 8.06 0 0 0-1.657 2.353h45.108a4.025 4.025 0 0 0 4.018-4.018zm323.744 360.83H259.046c-2.621 8.949-9.575 16.155-18.507 18.912v43.398c8.932 2.756 15.886 9.961 18.507 18.911h183.309c2.621-8.95 9.575-16.154 18.506-18.911v-43.398c-8.931-2.757-15.885-9.963-18.506-18.912zm-133.026 48.611h-27.847a8 8 0 0 1 0-16h27.847a8 8 0 0 1 0 16zm49.354 20.943a8 8 0 0 1-15.974-.175c-7.008-2.286-12.349-7.508-14.163-14.783a7.981 7.981 0 0 1 15.5-3.812c.746 2.992 4.337 3.987 7.054 3.922.256-.006.677-.044 1.263-.115.958-.116 4.803-.884 4.771-2.249-.001-.069-.013-.022-.045-.282-.305-2.513-5.686-3.417-7.628-3.736-9.93-1.63-19.093-6.703-19.636-17.9-.421-8.665 4.982-15.543 12.878-18.423a8 8 0 0 1 15.992-.096c5.312 1.894 9.999 5.776 12.601 11.972a7.999 7.999 0 0 1-14.75 6.188c-1.232-2.934-4.357-3.989-7.312-3.394-1.485.299-3.559 1.191-3.47 3.004.086 1.812 4.921 2.68 6.261 2.9 10.143 1.665 19.562 6.253 20.941 17.611.054.445.089 1.042.107 1.782.215 9.107-6.165 15.183-14.39 17.586zm61.234-20.943H392.07a8 8 0 0 1 0-16h27.846a8 8 0 0 1 .001 16zM486 340.272H215.401c-5.508 0-10 4.492-10 10v135.729c0 5.508 4.492 10 10 10H486c5.508 0 10-4.492 10-10V350.272c0-5.508-4.492-10-10-10zm-9.139 106.36a8 8 0 0 1-8 8c-6.661 0-11.648 5.587-11.648 12.113a8 8 0 0 1-8 8H252.188a8 8 0 0 1-8-8c0-6.528-4.987-12.113-11.649-12.113a8 8 0 0 1-8-8V389.64a8 8 0 0 1 8-8c6.662 0 11.649-5.587 11.649-12.115a8 8 0 0 1 8-8h197.024a8 8 0 0 1 8 8c0 6.528 4.986 12.115 11.648 12.115a8 8 0 0 1 8 8v56.992zM225.135 206.428H47.102C29.996 206.428 16 220.423 16 237.53v227.368C16 482.004 29.996 496 47.102 496h144.3a25.86 25.86 0 0 1-2-10v-34.642h-7.925c-3.938 0-7.15-3.212-7.15-7.15v-9.295c0-3.938 3.212-7.15 7.15-7.15h7.925v-26.544h-7.925c-3.938 0-7.15-3.212-7.15-7.15v-9.295c0-3.938 3.212-7.15 7.15-7.15h7.925V351.08h-7.925c-3.938 0-7.15-3.212-7.15-7.149v-9.295c0-3.938 3.212-7.15 7.15-7.15h21.416a25.837 25.837 0 0 1 12.51-3.213h40.836V237.53c-.002-17.107-13.997-31.102-31.104-31.102zM97.912 444.208c0 3.938-3.212 7.15-7.15 7.15H64.038c-3.938 0-7.149-3.212-7.149-7.15v-9.295c0-3.938 3.212-7.15 7.149-7.15h26.724c3.938 0 7.15 3.212 7.15 7.15zm0-50.139c0 3.938-3.212 7.15-7.15 7.15H64.038c-3.938 0-7.149-3.212-7.149-7.15v-9.295c0-3.938 3.212-7.15 7.149-7.15h26.724c3.938 0 7.15 3.212 7.15 7.15zm0-50.139c0 3.938-3.212 7.149-7.15 7.149H64.038c-3.938 0-7.149-3.212-7.149-7.149v-9.295c0-3.938 3.212-7.15 7.149-7.15h26.724c3.938 0 7.15 3.212 7.15 7.15zm58.718 100.278c0 3.938-3.212 7.15-7.15 7.15h-26.724c-3.938 0-7.149-3.212-7.149-7.15v-9.295c0-3.938 3.212-7.15 7.149-7.15h26.724c3.938 0 7.15 3.212 7.15 7.15zm0-50.139c0 3.938-3.212 7.15-7.15 7.15h-26.724c-3.938 0-7.149-3.212-7.149-7.15v-9.295c0-3.938 3.212-7.15 7.149-7.15h26.724c3.938 0 7.15 3.212 7.15 7.15zm0-50.139c0 3.938-3.212 7.149-7.15 7.149h-26.724c-3.938 0-7.149-3.212-7.149-7.149v-9.295c0-3.938 3.212-7.15 7.149-7.15h26.724c3.938 0 7.15 3.212 7.15 7.15zm65.288-57.646c0 3.938-3.212 7.15-7.15 7.15H57.469c-3.938 0-7.149-3.212-7.149-7.15V258.22c0-3.938 3.211-7.15 7.149-7.15h157.299c3.938 0 7.15 3.212 7.15 7.15zm141.132-84.102h65.801c8.113 0 14.75-6.638 14.75-14.749 0-8.113-6.637-14.75-14.75-14.75H363.05c-8.113 0-14.75 6.637-14.75 14.749 0 8.114 6.637 14.75 14.75 14.75zm76.92 13.915c19.338 21.709 33.883 40.701 43.634 57.821 10.122 17.773 13.644 35.619 12.002 52.193a25.867 25.867 0 0 0-9.606-1.839h-56.769a26.922 26.922 0 0 0-.162-2.445c-2.077-17.116-16.976-23.433-32.045-25.907-6.158-1.011-15.952-3.268-16.326-10.984-.384-7.903 7.645-11.881 14.508-12.088.339.019.676.018 1.015-.006 6.874.134 12.829 3.563 15.57 10.09a7.997 7.997 0 0 0 10.469 4.281 7.997 7.997 0 0 0 4.281-10.469c-4.383-10.438-12.728-16.47-21.902-18.795a32.443 32.443 0 0 0-.969-.23v-4.139a8 8 0 0 0-16 0v4.255c-13.288 3.092-23.604 13.552-22.91 27.851.81 16.698 15.138 23.594 29.701 25.984 7.027 1.154 17.696 3.491 18.733 12.032.027.219.048.409.064.57h-35.269a14.132 14.132 0 0 1-.172-.628 7.982 7.982 0 0 0-15.629.628H296.14c-1.213-16.052 2.409-33.236 12.158-50.354 9.751-17.12 24.296-36.112 43.634-57.821a30.556 30.556 0 0 0 11.119 2.085h65.801c3.918 0 7.667-.74 11.118-2.085zm-81.131-59.122-8.44-8.439c-5.895-5.894-5.895-15.541 0-21.435 5.014-5.014 12.95-5.861 18.916-2.031 2.216 1.422 4.761 1.649 7.193.642s4.071-2.966 4.632-5.539c1.485-6.804 7.577-11.939 14.811-11.94 7.103 0 13.298 5.007 14.812 11.94.562 2.573 2.201 4.532 4.632 5.539 2.432 1.008 4.977.779 7.192-.642 5.86-3.762 13.801-3.084 18.916 2.03 5.895 5.894 5.894 15.542 0 21.436l-8.439 8.439a30.812 30.812 0 0 0-4.212-.29H363.05c-1.428 0-2.834.1-4.211.29zm-239.457-31.068a7.998 7.998 0 0 1 0-11.312 7.998 7.998 0 0 1 11.312 0l3.141 3.141 15.044-13.652a7.986 7.986 0 0 1 10.75 11.812l-20.371 18.487c-3.095 3.176-8.231 3.17-11.356.045zm152.855 179.005h8.666c2.749-19.725 10.573-35.3 21.291-51.61h-29.956v51.61zm7.747 16h-7.747v3.36h7.891a94.145 94.145 0 0 1-.144-3.36zm52.064-106.484h-65.91a46.69 46.69 0 0 1 6.095 22.875h41.263c5.893-7.821 12.157-15.463 18.552-22.875zM368.26 16H134.61v45.804c0 11.044-8.974 20.017-20.017 20.017H68.789v108.607h55.822c4.619-1.962 9.701-3.049 15.036-3.049s10.417 1.086 15.036 3.049h70.453c9.667 0 18.678 2.953 26.177 8h83.025a30.567 30.567 0 0 1-2.037-10.995c0-9.39 4.242-17.815 10.907-23.461l-4.123-4.122a30.932 30.932 0 0 1-7.786-13.031H212.972a8 8 0 0 1 0-16h117.801a30.948 30.948 0 0 1 8.312-15.031c7.97-7.969 19.474-10.826 29.958-8.089a31.308 31.308 0 0 1 7.251-8.457V24.035c.001-4.425-3.608-8.035-8.034-8.035zM139.646 157.866c-21.255 0-38.486-17.231-38.486-38.486s17.231-38.486 38.486-38.486 38.486 17.231 38.486 38.486c0 21.256-17.23 38.486-38.486 38.486zm204.277-49.923H212.972a8 8 0 0 1 0-16h130.952a8 8 0 1 1-.001 16z" clip-rule="evenodd" fill="#000000" opacity="1" data-original="#000000" class=""></path></g></svg>