<svg xmlns="http://www.w3.org/2000/svg" version="1.1" xmlns:xlink="http://www.w3.org/1999/xlink" width="512" height="512" x="0" y="0" viewBox="0 0 512 512" style="enable-background:new 0 0 512 512" xml:space="preserve" class=""><g><path fill-rule="evenodd" d="M390.068 385.672v-93.271zm10.078-17.456-10.078 5.818-49.816 28.761zm-56.345-258.153h42.543a3.731 3.731 0 0 1 3.725 3.723v131.316c-17.729 0-34.617 3.58-49.99 10.053v-141.37a3.727 3.727 0 0 1 3.722-3.722zm46.267 153.039c61.266 0 110.932 49.666 110.932 110.933s-49.666 110.933-110.932 110.933c-61.268 0-110.934-49.666-110.934-110.933s49.667-110.933 110.934-110.933zM324.697 64.347l-6.621 19.45a8.983 8.983 0 0 0 17.016 5.766l14.174-41.637c2.029-5.202-1.121-11.021-6.65-12.101l-43.555-8.624a8.992 8.992 0 0 0-3.445 17.649l20.111 3.981L99.535 173.648c-4.289 2.467-5.77 7.943-3.303 12.234a8.96 8.96 0 0 0 12.234 3.305zm74.371 294.971a8.967 8.967 0 0 1 8.848 4.433c2.465 4.291.986 9.769-3.305 12.234l-5.543 3.2v6.486a9 9 0 0 1-17.289 3.515l-37.027 21.378a8.979 8.979 0 1 1-9-15.54l45.316-26.162V292.4a9 9 0 0 1 18 0zM37.658 36.025a3.73 3.73 0 0 1 3.723 3.723v331.377h219.791a129.405 129.405 0 0 0 2.906 30.381H11V39.748a3.732 3.732 0 0 1 3.723-3.723zM81.91 247.347a3.73 3.73 0 0 0-3.723 3.723v77.947a3.73 3.73 0 0 0 3.723 3.723h42.545a3.732 3.732 0 0 0 3.723-3.723V251.07a3.732 3.732 0 0 0-3.723-3.723zm87.297-45.761a3.73 3.73 0 0 0-3.723 3.723v123.708a3.73 3.73 0 0 0 3.723 3.723h42.543a3.732 3.732 0 0 0 3.725-3.723V205.309a3.732 3.732 0 0 0-3.725-3.723zm87.297-45.764a3.73 3.73 0 0 0-3.723 3.723v169.472a3.73 3.73 0 0 0 3.723 3.723h11.387c7.004-20.724 19.135-39.085 34.881-53.579V159.545a3.73 3.73 0 0 0-3.723-3.723z" clip-rule="evenodd" fill="#000000" opacity="1" data-original="#000000" class=""></path></g></svg>