<svg xmlns="http://www.w3.org/2000/svg" version="1.1" xmlns:xlink="http://www.w3.org/1999/xlink" width="512" height="512" x="0" y="0" viewBox="0 0 512 512" style="enable-background:new 0 0 512 512" xml:space="preserve" class=""><g><path d="M176 59.313 155.313 80H176zM208.08 371.955l-5.565-13.435a8 8 0 0 1 .166-6.5l5.107-10.745-5.067-5.067-10.745 5.107a8 8 0 0 1-6.5.166l-13.435-5.565a8 8 0 0 1-4.476-4.71L163.584 320h-7.168l-3.985 11.21a8 8 0 0 1-4.476 4.71l-13.435 5.565a8 8 0 0 1-6.5-.166l-10.745-5.107-5.067 5.067 5.107 10.745a8 8 0 0 1 .166 6.5l-5.565 13.435a8 8 0 0 1-4.71 4.476L96 380.416v7.168l11.21 3.985a8 8 0 0 1 4.71 4.476l5.565 13.435a8 8 0 0 1-.166 6.5l-5.107 10.745 5.067 5.067 10.745-5.107a7.992 7.992 0 0 1 6.5-.166l13.435 5.565a8 8 0 0 1 4.476 4.71L156.416 448h7.168l3.985-11.21a8 8 0 0 1 4.476-4.71l13.435-5.565a8 8 0 0 1 6.5.166l10.745 5.107 5.067-5.067-5.107-10.745a8 8 0 0 1-.166-6.5l5.565-13.435a8 8 0 0 1 4.71-4.476L224 387.584v-7.168l-11.21-3.985a8 8 0 0 1-4.71-4.476zM160 418.526A34.526 34.526 0 1 1 194.526 384 34.565 34.565 0 0 1 160 418.526z" fill="#000000" opacity="1" data-original="#000000" class=""></path><circle cx="160" cy="384" r="18.526" fill="#000000" opacity="1" data-original="#000000" class=""></circle><path d="M240 288H80a16.019 16.019 0 0 0-16 16v160a16.019 16.019 0 0 0 16 16h160a16.019 16.019 0 0 0 16-16V304a16.019 16.019 0 0 0-16-16zm0 105.229a8 8 0 0 1-5.319 7.538l-13.18 4.687-2.843 6.863 6.005 12.634a8 8 0 0 1-1.568 9.092L210.043 447.1a8 8 0 0 1-9.092 1.568l-12.634-6-6.863 2.843-4.687 13.18a8 8 0 0 1-7.538 5.309h-18.458a8 8 0 0 1-7.538-5.319l-4.687-13.18-6.863-2.843-12.634 6a8 8 0 0 1-9.092-1.568l-13.052-13.047a8 8 0 0 1-1.568-9.092l6-12.634-2.837-6.863-13.18-4.687a8 8 0 0 1-5.32-7.538v-18.458a8 8 0 0 1 5.319-7.538l13.18-4.687 2.843-6.863-6-12.634a8 8 0 0 1 1.568-9.092l13.047-13.057a8 8 0 0 1 9.092-1.568l12.634 6 6.863-2.843 4.687-13.18a8 8 0 0 1 7.538-5.309h18.458a8 8 0 0 1 7.538 5.319l4.687 13.18 6.863 2.843 12.634-6a8 8 0 0 1 9.092 1.568l13.057 13.047a8 8 0 0 1 1.568 9.092l-6.005 12.634 2.843 6.863 13.18 4.687a8 8 0 0 1 5.314 7.538zM416 80v344a8 8 0 0 1-8 8H272v16h160V80z" fill="#000000" opacity="1" data-original="#000000" class=""></path><path d="M272 416h128V48H192v40a8 8 0 0 1-8 8h-40v176h96a32.036 32.036 0 0 1 32 32zm88-24h-72v-16h72zm16-32h-88v-16h88zm0-32h-88v-16h88zm0-32h-88v-16h88zm-72-32v-16h16v16zm72 0h-40v-16h40zM234.343 90.343a8 8 0 0 1 11.314 0L288 132.687l66.343-66.344 11.314 11.314-72 72a8 8 0 0 1-11.314 0L240 107.313l-58.343 58.344-11.314-11.314zM168 224v-16h16v-32h16v32h16v-64h16v64h16v-56h16v56h16v-40h16v40h16v-56h16v56h16v-88h16v88h16v16z" fill="#000000" opacity="1" data-original="#000000" class=""></path></g></svg>