<svg xmlns="http://www.w3.org/2000/svg" version="1.1" xmlns:xlink="http://www.w3.org/1999/xlink" width="512" height="512" x="0" y="0" viewBox="0 0 512 512" style="enable-background:new 0 0 512 512" xml:space="preserve" class=""><g><path fill-rule="evenodd" d="M224.224 481.892H58.752v-52.815h165.472v52.814zm71.946-252.751h186.4a17.854 17.854 0 0 1 17.8 17.8V485.7a17.854 17.854 0 0 1-17.8 17.8h-186.4a17.853 17.853 0 0 1-17.8-17.8V246.943a17.854 17.854 0 0 1 17.8-17.8zm18.612 31.414a5.01 5.01 0 0 0-5 5v30.318a5.009 5.009 0 0 0 5 5h149.174a5.008 5.008 0 0 0 5-5v-30.318a5.009 5.009 0 0 0-5-5zm123.567 100h25.607a5.009 5.009 0 0 0 5-5v-25.602a5.009 5.009 0 0 0-5-5h-25.607a5.01 5.01 0 0 0-5 5v25.606a5.01 5.01 0 0 0 5 5zm-61.783 0h25.606a5.01 5.01 0 0 0 5-5v-25.602a5.01 5.01 0 0 0-5-5h-25.606a5.01 5.01 0 0 0-5 5v25.606a5.01 5.01 0 0 0 5 5zm-61.784 0h25.607a5.01 5.01 0 0 0 5-5v-25.602a5.01 5.01 0 0 0-5-5h-25.607a5.01 5.01 0 0 0-5 5v25.606a5.01 5.01 0 0 0 5 5zm61.784 56.549h25.606a5.01 5.01 0 0 0 5-5V386.5a5.01 5.01 0 0 0-5-5h-25.606a5.01 5.01 0 0 0-5 5v25.606a5.01 5.01 0 0 0 5 5zm-61.784 0h25.607a5.01 5.01 0 0 0 5-5V386.5a5.01 5.01 0 0 0-5-5h-25.607a5.01 5.01 0 0 0-5 5v25.606a5.01 5.01 0 0 0 5 5zm123.567 56.549h25.607a5.009 5.009 0 0 0 5-5V386.5a5.009 5.009 0 0 0-5-5h-25.607a5.01 5.01 0 0 0-5 5v82.155a5.01 5.01 0 0 0 5 5zm-61.783 0h25.606a5.01 5.01 0 0 0 5-5v-25.602a5.01 5.01 0 0 0-5-5h-25.606a5.01 5.01 0 0 0-5 5v25.606a5.01 5.01 0 0 0 5 5zm-61.784 0h25.607a5.01 5.01 0 0 0 5-5v-25.602a5.01 5.01 0 0 0-5-5h-25.607a5.01 5.01 0 0 0-5 5v25.606a5.01 5.01 0 0 0 5 5zm-52.413-45.746v-30.2H102.632a8 8 0 0 1 0-16h159.737V352.7H102.632a8 8 0 0 1 0-16h159.737v-37.022h-16.7a8.016 8.016 0 0 1-8-8V166.6a8.016 8.016 0 0 1 8-8h23.861a8.016 8.016 0 0 1 8 8v52.183a33.543 33.543 0 0 1 18.64-5.646h11.108v-83.022a8.016 8.016 0 0 1 8-8h23.863a8.016 8.016 0 0 1 8 8v83.026h45.814V29.581A21.122 21.122 0 0 0 371.874 8.5h-193.94v90.269A35.079 35.079 0 0 1 142.9 133.8H52.633v279.278h183.785l25.951 14.833zM155.76 14.674a21.134 21.134 0 0 1 6.174-4.347v88.442A19.071 19.071 0 0 1 142.9 117.8H54.46a21.152 21.152 0 0 1 4.347-6.175zm137.773 72.789L123 185.921a7.965 7.965 0 0 1-7.937-13.813l170.5-98.436-13.891-2.75a7.992 7.992 0 1 1 3.062-15.687l34.73 6.876a8 8 0 0 1 5.912 10.757l-11.29 33.164a7.985 7.985 0 0 1-15.125-5.125l4.577-13.444zM106.447 231.586h23.862a8.016 8.016 0 0 1 8 8v52.092a8.016 8.016 0 0 1-8 8h-23.862a8.016 8.016 0 0 1-8-8v-52.092a8.016 8.016 0 0 1 8-8zm69.61-36.49h23.862a8.016 8.016 0 0 1 8 8v88.582a8.016 8.016 0 0 1-8 8h-23.862a8.016 8.016 0 0 1-8-8V203.1a8.016 8.016 0 0 1 8-8zm64.105 238.551 26.055 14.893a8.01 8.01 0 0 1 0 13.891l-26.056 14.893v-43.677zM42.814 481.891H23.63a12.023 12.023 0 0 1-12-12v-28.814a12.023 12.023 0 0 1 12-12h19.185z" fill="#000000" opacity="1" data-original="#000000" class=""></path></g></svg>