<svg xmlns="http://www.w3.org/2000/svg" version="1.1" xmlns:xlink="http://www.w3.org/1999/xlink" width="512" height="512" x="0" y="0" viewBox="0 0 64 64" style="enable-background:new 0 0 512 512" xml:space="preserve" class=""><g><path d="M43.56 57.55C43 58.46 42.03 59 40.95 59h-17.9c-1.08 0-2.05-.54-2.61-1.45-.54-.89-.59-1.97-.11-2.9L22.19 51h19.62l1.86 3.65c.48.93.43 2.01-.11 2.9z" fill="#000000" opacity="1" data-original="#000000" class=""></path><rect width="26" height="14" x="7" y="10" rx="2" fill="#000000" opacity="1" data-original="#000000" class=""></rect><rect width="12" height="12" x="7" y="26" rx="2" fill="#000000" opacity="1" data-original="#000000" class=""></rect><rect width="12" height="12" x="21" y="26" rx="2" fill="#000000" opacity="1" data-original="#000000" class=""></rect><path d="M56 38H41c-.55 0-1-.45-1-1s.45-1 1-1h15c.55 0 1 .45 1 1s-.45 1-1 1zM56 33H41c-.55 0-1-.45-1-1s.45-1 1-1h15c.55 0 1 .45 1 1s-.45 1-1 1zM56 28H41c-.55 0-1-.45-1-1s.45-1 1-1h15c.55 0 1 .45 1 1s-.45 1-1 1z" fill="#000000" opacity="1" data-original="#000000" class=""></path><path d="M57 5H7c-2.76 0-5 2.24-5 5v34c0 2.76 2.24 5 5 5h50c2.76 0 5-2.24 5-5V10c0-2.76-2.24-5-5-5zM4 41V10c0-1.65 1.35-3 3-3h28v34zm56 0H37V7h20c1.65 0 3 1.35 3 3z" fill="#000000" opacity="1" data-original="#000000" class=""></path><path d="M53 21c-.21 0-.42-.07-.6-.2-.44-.33-.53-.96-.2-1.4l2.55-3.4-2.55-3.4c-.33-.44-.24-1.07.2-1.4s1.07-.24 1.4.2l3 4c.27.36.27.84 0 1.2l-3 4c-.2.26-.5.4-.8.4zM43 21c-.3 0-.6-.14-.8-.4l-3-4a.99.99 0 0 1 0-1.2l3-4c.33-.44.96-.53 1.4-.2s.53.96.2 1.4L41.25 16l2.55 3.4c.33.44.24 1.07-.2 1.4-.18.13-.39.2-.6.2zM47 21c-.08 0-.16 0-.24-.03a1 1 0 0 1-.73-1.21l2-8a1 1 0 0 1 1.94.48l-2 8c-.11.46-.52.76-.97.76z" fill="#000000" opacity="1" data-original="#000000" class=""></path></g></svg>