<svg xmlns="http://www.w3.org/2000/svg" version="1.1" xmlns:xlink="http://www.w3.org/1999/xlink" width="512" height="512" x="0" y="0" viewBox="0 0 512 512" style="enable-background:new 0 0 512 512" xml:space="preserve" fill-rule="evenodd" class=""><g><path d="M483 465H29c-16 0-29-13-29-30 0-16 13-29 29-29h454c16 0 29 13 29 29 0 17-13 30-29 30zM175 394V246c0-4 3-6 6-6h289c3 0 6 2 6 6v148h-59v-82c0-3-3-6-6-6h-76c-3 0-6 3-6 6v82zm101-15h-61c-3 0-6-3-6-6v-32c0-3 3-6 6-6h61c3 0 6 3 6 6v32c0 3-3 6-6 6zm-55-12h49v-20h-49zm55-44h-61c-3 0-6-3-6-6v-32c0-3 3-6 6-6h61c3 0 6 3 6 6v32c0 3-3 6-6 6zm-55-12h49v-20h-49zm184 83h-64v-76h64zM261 228l23-176c1-2 3-5 6-5h55c3 0 6 3 6 6v175zm109 0 23-176c1-2 3-5 6-5h55c3 0 6 3 6 6v175zM36 394V268h113v126zm0-138v-27h113v27zm0-39v-28c0-31 26-56 57-56s56 25 56 56v28z" fill="#000000" opacity="1" data-original="#000000" class=""></path><path d="M202 252c-3 0-6-3-6-6V90H99v49c0 3-3 6-6 6-4 0-6-3-6-6V84c0-3 2-6 6-6h109c4 0 6 3 6 6v162c0 3-2 6-6 6z" fill="#000000" opacity="1" data-original="#000000" class=""></path></g></svg>