<svg xmlns="http://www.w3.org/2000/svg" version="1.1" xmlns:xlink="http://www.w3.org/1999/xlink" width="512" height="512" x="0" y="0" viewBox="0 0 24 24" style="enable-background:new 0 0 512 512" xml:space="preserve" class=""><g><path d="M13.25 18h-6.5a.75.75 0 0 1-.75-.75V.75A.75.75 0 0 1 6.75 0h6.5a.75.75 0 0 1 .75.75v16.5a.75.75 0 0 1-.75.75zM23.25 18h-7a.75.75 0 0 1-.75-.75v-6a.75.75 0 0 1 .75-.75h7a.75.75 0 0 1 .75.75v6a.75.75 0 0 1-.75.75zM22.25 9h-4.5a.75.75 0 0 1-.75-.75v-3.5a.75.75 0 0 1 .75-.75h4.5a.75.75 0 0 1 .75.75v3.5a.75.75 0 0 1-.75.75z" fill="#000000" opacity="1" data-original="#000000"></path><path d="M22.93 21 5.5 20.997c-1.654 0-3-1.346-3-3V8H1a1 1 0 1 1 0-2h1.5c1.103 0 2 .897 2 2v9.997c0 .551.448 1 1 1L22.93 19a1 1 0 1 1 0 2z" fill="#000000" opacity="1" data-original="#000000"></path><circle cx="9" cy="22" r="1.25" fill="#000000" opacity="1" data-original="#000000"></circle><path d="M9 24c-1.103 0-2-.897-2-2s.897-2 2-2 2 .897 2 2-.897 2-2 2zm0-2.5a.5.5 0 1 0 .002 1.002A.5.5 0 0 0 9 21.5z" fill="#000000" opacity="1" data-original="#000000"></path><circle cx="19" cy="22" r="1.25" fill="#000000" opacity="1" data-original="#000000"></circle><path d="M19 24c-1.103 0-2-.897-2-2s.897-2 2-2 2 .897 2 2-.897 2-2 2zm0-2.5a.5.5 0 1 0 .002 1.002A.5.5 0 0 0 19 21.5z" fill="#000000" opacity="1" data-original="#000000"></path></g></svg>