<svg xmlns="http://www.w3.org/2000/svg" version="1.1" xmlns:xlink="http://www.w3.org/1999/xlink" width="512" height="512" x="0" y="0" viewBox="0 0 512 512" style="enable-background:new 0 0 512 512" xml:space="preserve" class=""><g><path d="M512 299.783v122.452h-41.138V299.783zm-184.683 76.088c-7.278 5.617-9.541 15.994-5.257 24.139.011.01.011.032.021.042.518.984 1.09 1.904 1.735 2.719 3.163 4.115 7.69 6.706 12.81 7.362s10.166-.687 14.196-3.808l50.225-38.737c3.237-2.497 7.881-1.904 10.366 1.333a7.384 7.384 0 0 1-1.333 10.367l-50.225 38.747a33.677 33.677 0 0 1-20.659 7.045 35.34 35.34 0 0 1-4.464-.285c-9.034-1.164-17.052-5.765-22.584-12.937a32.44 32.44 0 0 1-1.894-2.74l-74.184-35.955c-4.58-2.232-9.795-2.518-14.672-.825-4.866 1.693-8.78 5.162-11.012 9.753-4.633 9.531-.635 21.061 8.896 25.684 13.699 6.643 25.811 12.673 36.494 17.993 42.884 21.336 64.399 32.03 85.312 31.374 21.061-.687 44.142-12.884 90.125-37.182a5341.428 5341.428 0 0 1 24.858-13.096V318.04h-53.8c-24.972 19.274-49.947 38.558-74.954 57.831zM184.947 54.826h-38.409v108.341h38.409zm-68.176 136.902c12.937 9.986 25.895 19.972 38.843 29.957 12.704 9.785 25.398 19.58 38.092 29.375a34.048 34.048 0 0 1 13.233 26.043l62.538-30.317a34.133 34.133 0 0 1 6.093-2.253V65.277c0-5.765-4.707-10.451-10.483-10.451h-65.351v123.118H131.76V54.826H66.377c-5.765 0-10.451 4.686-10.451 10.451v124.906h56.328c1.63 0 3.216.54 4.517 1.545zm175.946 102.977c9.541-4.633 13.551-16.174 8.928-25.726-4.623-9.52-16.163-13.519-25.726-8.885l-74.173 35.955c-.571.92-1.174 1.83-1.841 2.708-6.738 8.685-16.84 13.244-27.027 13.244a33.82 33.82 0 0 1-20.733-7.077l-50.225-38.737a7.384 7.384 0 0 1-1.333-10.366c2.486-3.237 7.13-3.829 10.367-1.343l50.225 38.747c8.388 6.484 20.5 4.919 26.995-3.47a19.53 19.53 0 0 0 1.925-3.099c.116-.222.212-.455.317-.677.116-.264.233-.518.339-.783a19.248 19.248 0 0 0-6.082-22.436c-12.683-9.796-25.387-19.58-38.081-29.375a51499.41 51499.41 0 0 1-36.865-28.423h-53.8v88.824c9.002 4.707 17.369 9.129 24.858 13.085 45.983 24.298 69.054 36.494 90.125 37.172 20.913.677 42.429-10.028 85.312-31.364 10.684-5.312 22.796-11.341 36.495-17.974zM0 309.134h41.138V186.671H0zm449.759-122.156h-31.851v-48.955c0-32.94-26.815-59.745-59.777-59.745h-40.842a7.395 7.395 0 0 0-7.394 7.394v36.875a7.395 7.395 0 0 0 7.394 7.394h40.842c4.379 0 8.082 3.702 8.082 8.082v48.955h-31.861a7.398 7.398 0 0 0-6.58 4.009 7.394 7.394 0 0 0 .571 7.68l57.693 80.51a7.358 7.358 0 0 0 6.008 3.089 7.407 7.407 0 0 0 6.008-3.079l57.714-80.52a7.368 7.368 0 0 0 .571-7.68 7.395 7.395 0 0 0-6.578-4.009z" fill="#000000" opacity="1" data-original="#000000" class=""></path></g></svg>