<svg xmlns="http://www.w3.org/2000/svg" version="1.1" xmlns:xlink="http://www.w3.org/1999/xlink" width="512" height="512" x="0" y="0" viewBox="0 0 64 64" style="enable-background:new 0 0 512 512" xml:space="preserve" class=""><g><path d="M22 12h2v2h-2zM22 16h2v4h-2zM20 23v1h6v-1a1 1 0 0 0-1-1h-4a1 1 0 0 0-1 1zM20 26h6v2h-6zM20 31a1.16 1.16 0 0 0 1 1h4c.767 0 1-.233 1-1v-1h-6zM4 27h2v2H4zM4 31h2v29H4zM4 25h2V7a1 1 0 0 1 1-1h5V4H4zM18 57h22V34H18zm6-18h2v2h-2zm-4-3h2v2h-2zM8 60h4v-1.531l-4-3.334zM46 24.586v-5.172l-2-2v9.172zM56 26h4v2h-4zM48 20h12v4H48zM32 32h4v-1.279l-2-.667-2 .667zM58 16h2v2h-2zM52 4h8v2h-8zM58 30h2v30h-2zM36 23v-2h-4v2a2 2 0 0 0 4 0z" fill="#000000" opacity="1" data-original="#000000"></path><path d="M43.707 29.707A1 1 0 0 1 43 30a.987.987 0 0 1-.383-.076A1 1 0 0 1 42 29V15a1 1 0 0 1 1.707-.707L47.414 18H50V4H14v48h2V33a1 1 0 0 1 1-1h1.2a2.744 2.744 0 0 1-.2-1v-8a3.006 3.006 0 0 1 2-2.829V11a1 1 0 0 1 1-1h4a1 1 0 0 1 1 1v9.171A3.006 3.006 0 0 1 28 23v8a3.811 3.811 0 0 1-.137 1H30v-2a1 1 0 0 1 .684-.948L33 28.28v-1.422A4 4 0 0 1 30 23v-3a1 1 0 0 1 1-1h6a1 1 0 0 1 1 1v3a4 4 0 0 1-3 3.858v1.422l2.316.772A1 1 0 0 1 38 30v2h3a1 1 0 0 1 1 1v19h8V26h-2.586zM39 17h-4v-2h4zm.293-4.293-3-3 1.414-1.414 3 3z" fill="#000000" opacity="1" data-original="#000000"></path></g></svg>