<svg xmlns="http://www.w3.org/2000/svg" version="1.1" xmlns:xlink="http://www.w3.org/1999/xlink" width="512" height="512" x="0" y="0" viewBox="0 0 57.561 58" style="enable-background:new 0 0 512 512" xml:space="preserve" class=""><g><path d="M25.41 8H14.15l-4.666 4h20.593zM7.78 14h24v12h-24zM22.78 4h2v2h-2zM18.78 4h2v2h-2zM24.78 0h-10c-1.103 0-2 .897-2 2h14.001a2.004 2.004 0 0 0-2.001-2zM7.78 55c0 1.654 1.346 3 3 3h18c1.654 0 3-1.346 3-3v-7h-24zM14.78 4h2v2h-2zM41.78 22h-2a3.959 3.959 0 0 1-2-.556V26h4c1.103 0 2-.897 2-2s-.897-2-2-2zM3.6 28 0 46h41.78c1.103 0 2-.897 2-2V27.463a3.98 3.98 0 0 1-2 .537zm24.18 2h2v2h-2zm-3 13h-18V31h18zm7 1h-4v-2h4zm10 0h-8v-2h8zm0-4h-14v-2h14zm0-4h-14v-2h14zm0-4h-10v-2h10z" fill="#000000" opacity="1" data-original="#000000" class=""></path><path d="m57.561 34-3.6-18H39.78c-1.103 0-2 .897-2 2s.897 2 2 2h2c2.206 0 4 1.794 4 4v10zM47.78 18h5v2h-5zm0 4h5v2h-5zm0 4h6v2h-6zm0 4h6v2h-6z" fill="#000000" opacity="1" data-original="#000000" class=""></path></g></svg>