<svg xmlns="http://www.w3.org/2000/svg" version="1.1" xmlns:xlink="http://www.w3.org/1999/xlink" width="512" height="512" x="0" y="0" viewBox="0 0 512 512" style="enable-background:new 0 0 512 512" xml:space="preserve" fill-rule="evenodd" class=""><g><path d="m239.79 307.4-95.44-27.49a5.997 5.997 0 0 1-4.34-5.76V131.04c.21.08.42.15.63.21l99.15 30.94zM257.79 312.34a6.01 6.01 0 0 1-3.5-1.13 5.985 5.985 0 0 1-2.5-4.87V165.93l.64.2c1.73.54 3.54.82 5.36.82 1.87 0 3.74-.29 5.52-.87l108.21-34.88.47-.16v138.63c0 2.57-1.64 4.86-4.07 5.69l-108.21 36.66c-.63.21-1.27.32-1.92.32zm85.46-63.72c-3.31 0-6-2.68-6-6v-64.83c0-3.31 2.69-6 6-6 3.32 0 6 2.69 6 6v64.83c0 3.32-2.68 6-6 6zM257.79 154.95c-.61 0-1.21-.09-1.79-.27L144.22 119.8a5.986 5.986 0 0 1-4.21-5.71 5.993 5.993 0 0 1 4.18-5.74l110-34.87a5.89 5.89 0 0 1 3.62 0l110 34.87c2.48.79 4.18 3.1 4.18 5.71a5.985 5.985 0 0 1-4.15 5.72l-108.21 34.88c-.6.19-1.22.29-1.84.29zM378.68 318.96c.01-7.38-.09-14.38-.38-19.03-.88-13.98 2.96-23.23 4-25.46.85-2.35 3.78-7.83 34.6-40.82 15.73-16.84 31.34-32.9 31.5-33.06a5.928 5.928 0 0 1 3.99-1.81c5.24-.27 9.83.6 13.62 2.49v-68c0-17.4 10.1-31.04 22.99-31.04 12.9 0 23 13.64 23 31.04v93.01c0 .11-.01.23-.01.35-2.2 37.08-20.15 50.41-39.16 64.53-10.3 7.65-20.89 15.51-30.91 27.8zM484.03 438.8H326.64c-3.31 0-6-2.68-6-6v-46.06c0-10.54 8.58-19.11 19.11-19.11h131.17c10.54 0 19.11 8.57 19.11 19.11v46.06c0 3.32-2.68 6-6 6zM342.11 355.63v-.34c0-13.41 10.91-24.33 24.33-24.33h80.48c13.42 0 24.33 10.92 24.33 24.33v.34h-.33zM133.31 318.96c0-7.38.1-14.38.39-19.03.88-13.98-2.96-23.23-4.01-25.46-.84-2.35-3.77-7.83-34.59-40.82-15.73-16.84-31.34-32.9-31.5-33.06a5.932 5.932 0 0 0-4-1.81c-5.23-.27-9.82.6-13.61 2.49v-68c0-17.4-10.1-31.04-23-31.04C10.1 102.23 0 115.87 0 133.27v93.01c0 .11.01.23.01.35 2.2 37.08 20.15 50.41 39.16 64.53 10.3 7.65 20.89 15.51 30.91 27.8zM27.97 438.8h157.38c3.32 0 6-2.68 6-6v-46.06c0-10.54-8.57-19.11-19.1-19.11H41.08c-10.54 0-19.11 8.57-19.11 19.11v46.06c0 3.32 2.68 6 6 6zM169.89 355.63v-.34c0-13.41-10.91-24.33-24.33-24.33H65.08c-13.42 0-24.34 10.92-24.34 24.33v.34h.34z" fill="#000000" opacity="1" data-original="#000000" class=""></path></g></svg>